<svg width="447" height="627" viewBox="0 0 447 627" fill="none" xmlns="http://www.w3.org/2000/svg">
<g id="head_back">
<path id="head_silouette_back" d="M84.6446 625.5C101.145 556.5 92.6446 465.5 84.6446 455.5C76.6446 445.5 71.6446 414.5 64.6446 384.5C57.6446 354.5 19.42 293.41 25.371 185.5C32.871 49.5 126.371 5.5 213.371 2.5H223.871H231.371C318.371 5.5 413.871 37.359 421.371 173.359C427.322 281.269 390.871 354.5 383.871 384.5C376.871 414.5 371.871 445.5 363.871 455.5C355.871 465.5 347.371 556.5 363.871 625.5" stroke="#434040" stroke-width="5"/>
<path id="Vector 32" d="M24.871 250C1.87089 244 -2.62904 276.5 7.87096 308.5C18.371 340.5 21.1845 333.875 24.8709 360.5C29.3708 393 41.371 390.5 63.371 397" stroke="#434040" stroke-width="5"/>
<path id="Vector 33" d="M415.371 248.185C438.371 242.185 450.371 276.685 439.871 308.685C429.371 340.685 426.558 334.06 422.871 360.685C418.371 393.185 406.871 392 384.871 398.5" stroke="#434040" stroke-width="5"/>
<path id="hairline_back" d="M411.371 275.5C380.336 303 378.904 377.247 344.25 425C319.94 458.5 293.561 472 226.837 474.5H219.595C152.871 472 130.112 459 105.802 425.5C71.1485 377.747 67.4055 298 36.371 270.5" stroke="#434040" stroke-width="2" stroke-dasharray="10 10"/>
<path id="sagittal_suture" d="M215.371 162L212.871 146L215.371 120.5L216.333 111L212.871 103.5L216.333 93.58L215.371 89V83L217.871 76L215.371 64.5L216.333 57.7L221.871 49.9V43.66L216.333 35.86V28.58L221.871 23.9L216.333 15.58V11.42L221.871 5.18V0.5" stroke="#434040" stroke-dasharray="2 2"/>
<path id="lamboid_suture" d="M89.371 322C93.371 315.2 92.7043 307.833 91.871 305V294.5C90.371 293.333 88.271 290.5 91.871 288.5C95.471 286.5 97.371 283.333 97.871 282V276.5L103.871 271.5L107.371 267V261L112.871 254V248.5L115.871 241L119.371 233.5V229.5V223.5L125.371 214.5C124.204 213.833 122.571 212 125.371 210C128.871 207.5 134.871 207.5 135.871 204C136.671 201.2 136.204 196.833 135.871 195C136.371 193.333 137.771 189.9 139.371 189.5C141.371 189 143.871 194 145.871 189.5C147.471 185.9 149.871 182.667 150.871 181.5C152.038 180.667 154.871 178.6 156.871 177C158.871 175.4 161.704 173 162.871 172V167H167.871C168.204 167 169.271 167 170.871 167C172.471 167 177.204 167 179.371 167L186.871 172H190.871C190.704 173.667 191.271 176 194.871 172C198.471 168 202.038 167 203.371 167L209.871 163H217.371H222.371H227.871L238.371 167L247.371 172L249.371 170.5C250.371 170 252.971 169.3 255.371 170.5C257.771 171.7 260.371 173.667 261.371 174.5L270.871 177C272.038 175.5 274.871 173.4 276.871 177C278.871 180.6 283.704 181.5 285.871 181.5H290.871V186L294.371 192L299.871 197.5L303.871 200.5L308.871 204V207.5L315.371 210H325.371C325.371 209.833 325.771 210 327.371 212C328.971 214 330.038 218.5 330.371 220.5C330.371 220.333 330.371 220.7 330.371 223.5C330.371 226.3 336.871 237 330.371 233.5L337.871 241L343.371 248.5L348.371 254V261V271.5L352.871 276.5V282L356.371 288.5L357.871 293C357.871 292.5 358.371 292.1 360.371 294.5C365.371 299.5 368.871 299 371.871 302" stroke="#434040" stroke-dasharray="2 2"/>
<path id="transvere_occipital_suture" d="M124.371 218.5C129.571 220.5 136.871 229 145.371 233M145.371 233H151.871L156.371 237L164.871 243L174.871 246C176.538 248.5 180.471 253.5 182.871 253.5C185.871 253.5 194.371 253.5 196.371 253.5C197.971 253.5 202.038 255.5 203.871 256.5C204.704 256.5 207.271 256.5 210.871 256.5C214.471 256.5 223.371 254.5 227.371 253.5H234.371C236.538 252.5 241.471 251.1 243.871 253.5C246.271 255.9 258.871 254.5 264.871 253.5L272.371 246H283.871L297.371 243L302.871 237H309.871L315.371 233M145.371 233L148.371 237L141.371 243L136.371 248L126.371 246L116.871 253.5M315.371 233L325.371 237H330.871M315.371 233L309.871 222L312.871 217L315.371 212.5" stroke="#434040" stroke-dasharray="2 2"/>
<path id="parietomastoid_suture" d="M33.371 289C35.2043 287.667 39.171 285.4 40.371 287C41.871 289 40.871 290.5 42.871 293C44.471 295 51.2043 298.167 54.371 299.5C55.2043 300.167 57.071 301.9 57.871 303.5C58.671 305.1 63.2043 309.5 65.371 311.5L74.871 315L80.871 318L84.871 321.5V329C85.2043 330.333 86.071 333.5 86.871 335.5C87.871 338 91.871 345.5 91.871 347.5C91.871 349.5 97.371 358 98.371 360C99.171 361.6 102.371 367.333 103.871 370L113.871 392M323.371 385.5L332.371 380.5L337.371 372.5V370C338.538 369.167 342.871 364.2 342.871 363C342.871 361.5 342.871 355.5 342.871 351.5C342.871 347.5 342.871 345.5 342.871 343C342.871 340.5 342.871 335.5 342.871 333C342.871 330.5 341.371 325.5 342.871 322C344.071 319.2 346.371 315.167 347.371 313.5C347.538 310.333 348.471 303.3 350.871 300.5C353.271 297.7 356.871 299.333 358.371 300.5H369.371C371.371 301.5 376.371 303.6 380.371 304C385.371 304.5 384.371 302 385.371 300.5C386.171 299.3 390.038 297 391.871 296L398.371 290L409.871 282.5" stroke="#434040" stroke-dasharray="2 2"/>
<g id="scalp_line">
<path id="Vector 38" d="M69.871 386.277C81.9149 395.325 92.9115 397.838 104.955 393.817C116.999 389.796 123.807 386.277 133.756 384.266C143.705 382.256 162.557 379.742 181.408 379.742C196.489 379.742 204.972 366.673 224.871 366.673" stroke="#434040" stroke-dasharray="2 2"/>
<path id="Vector 39" d="M378.871 386.277C366.827 395.325 355.83 397.838 343.787 393.817C331.743 389.796 324.935 386.277 314.986 384.266C305.037 382.256 286.185 379.742 267.334 379.742C252.253 379.742 243.77 366.673 223.871 366.673" stroke="#434040" stroke-dasharray="2 2"/>
</g>
</g>
</svg>
