<svg width="556" height="712" viewBox="0 0 556 712" fill="none" xmlns="http://www.w3.org/2000/svg">
<g id="Side">
<g id="silouette">
<path id="lips" d="M52.2905 439C66.0933 433.5 98.5933 441.5 98.5933 441.5M98.5933 441.5C86.0933 435 76.5933 413 43.5933 419.5C43.5933 419.5 36.5934 435 52.2905 439C40.0933 451.5 49.5933 458.5 49.5933 458.5C74.0933 460 89.0933 451 98.5933 441.5Z" stroke="#7A8FA6" stroke-width="4"/>
<path id="silouette_2" d="M280.009 462.979C279.399 462.846 278.788 462.713 278.177 462.58C276.807 467.833 274.483 472.879 271.734 477.579C260.513 496.448 242.574 510.394 223.364 520.756C221.111 521.967 218.844 523.121 216.508 524.25C185.941 536.403 151.589 540.375 118.651 547.485C105.236 550.228 90.9681 552.04 78.5312 547.133C65.6729 542.416 60.9127 527.544 61.6659 514.096C61.9958 500.43 62.2557 486.596 59.4301 472.963C58.1295 467.551 56.5268 461.576 51.6546 457.749C51.2804 458.25 50.9062 458.75 50.532 459.251C54.5346 462.493 56.1083 468.182 57.2009 473.431C59.6342 486.679 59.1155 500.407 58.5207 513.973C57.3712 527.709 62.3393 545.076 77.0184 550.689C90.9269 556.348 105.71 554.426 119.546 551.801C152.53 545.007 186.322 541.557 218.679 528.75C221.08 527.593 223.412 526.407 225.731 525.16C245.504 514.516 263.891 499.329 274.367 479.017C276.929 473.964 278.992 468.566 280.009 462.979Z" fill="#7A8FA6"/>
<path id="silouette_3" d="M43.0281 419.673C43.5634 419.995 44.0986 420.318 44.6338 420.641C51.427 410.146 47.6941 397.252 45.0105 386.536C43.5951 382.005 38.9936 381.677 35.9195 381.1C32.5764 380.642 29.3046 380.519 26.0538 380.297C19.6605 379.832 12.9003 379.36 7.9755 376.016C3.32697 372.958 2.54042 366.889 3.60187 361.213C13.3887 334.576 30.5506 308.982 51.3105 288.966C58.7815 282.149 65.4195 272.956 66.1487 262.128C67.0832 251.411 62.4615 241.634 62.4041 232.5C62.342 211.023 66.6265 189.817 72.9428 169.21L72.9848 169.052C77.6762 148.809 85.0585 129.141 95.7019 111.51C136.968 40.4001 227.16 20.8023 305.079 25.4889C349.566 26.7797 393.332 40.1202 430.328 64.9439C479.996 93.1282 516.006 138.385 536.65 191.344C558.304 242.758 554.977 302.539 536.862 354.859C521.092 399.978 486.028 434.353 464.176 477.355C452.252 519.5 456.57 563.238 464.377 605.308C468.67 619.86 475.373 633.174 481.752 646.678C492.516 668.774 503.721 690.535 515.793 711.987C516.326 711.662 516.86 711.338 517.394 711.012C505.551 689.679 494.413 667.767 483.805 645.692C477.526 632.24 470.862 618.72 466.809 604.692C459.262 563.481 455.454 518.671 467.011 478.645C488.451 436.75 524.076 401.968 540.324 356.141C558.909 302.956 562.591 242.614 540.536 189.656C520.236 136.62 482.57 89.1757 432.858 61.0561C395.404 35.775 350.374 21.9681 305.284 20.6423C226.831 15.7996 134.113 35.4725 91.4197 108.929C80.4592 127.085 72.9285 147.279 68.2018 167.948L68.2438 167.79C61.9092 188.655 57.5835 210.496 57.7825 232.5C58.0859 243.312 62.5831 252.427 61.7368 261.791C61.1848 271.118 55.5149 279.334 48.4587 285.901C27.1301 307.018 10.4816 331.973 0.406789 360.682C-0.71894 366.722 0.263142 374.681 6.26708 378.482C18.2369 386.261 35.3689 379.514 42.6514 387.127C45.5689 398.006 49.1364 409.894 43.0281 419.673Z" fill="#7A8FA6"/>
<path id="neck-front" d="M156.504 549.776C156.428 549.549 156.275 549.351 156.066 549.228C155.856 549.106 155.61 549.069 155.378 549.126C155.146 549.183 154.945 549.33 154.817 549.535C154.688 549.741 154.645 549.987 154.683 550.224C154.683 550.224 154.683 550.224 154.683 550.224C155.107 552.802 155.792 555.363 156.55 557.884C159.63 567.871 163.722 577.445 167.764 586.874C181.929 619.835 195.413 654.129 194.649 690.223C194.572 692.776 194.413 695.338 194.163 697.883C194.139 698.128 194.209 698.373 194.361 698.567C194.513 698.761 194.735 698.887 194.978 698.918C195.221 698.948 195.467 698.881 195.663 698.731C195.858 698.58 195.986 698.359 196.023 698.117C196.023 698.117 196.023 698.117 196.023 698.117C196.416 695.544 196.714 692.945 196.923 690.349C199.558 653.551 186.589 617.976 172.353 584.891C168.291 575.417 163.602 566.13 159.361 556.837C158.312 554.49 157.301 552.128 156.504 549.776Z" fill="#7A8FA6"/>
</g>
<g id="Eye">
<path id="eye" d="M90.2519 262.77C90.0573 263.091 89.8627 263.411 89.668 263.732C92.7907 265.776 96.0007 267.75 99.2665 269.591C110.11 275.712 121.842 280.532 134.176 283.04L134.465 280.103C131.873 280.097 129.279 280.263 126.742 280.475C118.221 281.222 109.767 282.469 101.374 283.97C97.1659 284.735 93.0116 285.557 88.8023 286.6C86.7145 287.136 84.6229 287.657 82.5073 288.549C82.2103 288.68 81.9036 288.83 81.6419 288.986C81.4936 289.073 81.2798 289.212 81.1082 289.357C81.0188 289.431 80.9301 289.513 80.8419 289.61C80.7014 289.766 80.5498 289.967 80.4406 290.253C80.1609 290.811 80.4607 291.819 80.8885 292.136C81.1285 292.352 81.1848 292.369 81.3075 292.446C81.4183 292.51 81.5273 292.562 81.6366 292.609C81.746 292.655 81.8559 292.695 81.9685 292.731C82.0745 292.765 82.1237 292.779 82.2033 292.801C82.3517 292.841 82.5064 292.877 82.6695 292.91C83.0304 292.982 83.276 293.016 83.5531 293.052C83.8273 293.087 84.1419 293.12 84.4438 293.145C84.9374 293.187 85.4876 293.22 86.1 293.244C86.3795 293.245 86.5729 293.338 86.4708 293.283C86.4291 293.256 86.3918 293.182 86.4402 293.268C86.4903 293.346 86.5641 293.591 86.8353 293.978C87.099 294.374 87.6668 294.738 88.0763 294.834C88.4895 294.948 88.8346 294.949 89.1046 294.941C89.6734 294.915 90.116 294.822 90.5695 294.719C92.2838 294.298 93.7903 293.715 95.3413 293.117C109.709 288.439 125.885 287.931 140.797 282.642L140.604 280.482C125.187 276.538 111.104 266.754 97.2187 258.239C96.1712 257.57 95.1359 256.903 94.115 256.243L93.5577 255.865L93.2035 256.454C91.9601 258.624 90.7172 260.795 89.4749 262.966C89.7983 263.156 90.1217 263.346 90.4451 263.536C91.7355 261.393 93.0255 259.25 94.3149 257.106L93.4034 257.317C94.4117 258.001 95.435 258.69 96.471 259.383C110.337 268.235 123.741 278.185 140.267 282.69L140.073 280.529C125.407 285.514 109.717 285.716 94.3481 290.546C92.853 291.112 91.343 291.668 89.9416 291.997C89.5877 292.077 89.248 292.134 89.0086 292.14C88.8987 292.145 88.8073 292.128 88.8424 292.134C88.8656 292.125 89.0753 292.257 89.1071 292.322C89.1482 292.492 88.9257 291.595 88.1525 291.02C87.3968 290.485 86.7387 290.457 86.2215 290.419C85.6435 290.393 85.1338 290.358 84.6922 290.318C84.4221 290.293 84.1481 290.263 83.9206 290.232C83.6923 290.201 83.4915 290.171 83.2422 290.12C83.0154 290.071 82.8768 290.033 82.7527 289.982C82.7252 289.977 82.6985 289.931 82.8553 290.065C82.9397 290.144 83.0804 290.316 83.1472 290.572C83.2178 290.832 83.1788 291.1 83.1144 291.264C82.9612 291.603 82.9213 291.552 82.9377 291.556C82.9473 291.547 83.0228 291.494 83.0962 291.452C83.2217 291.378 83.4311 291.274 83.6589 291.175C85.3673 290.462 87.4892 289.917 89.4988 289.418C93.606 288.422 97.7282 287.624 101.896 286.88C110.209 285.422 118.624 284.197 126.994 283.464C129.48 283.256 132.021 283.084 134.465 283.069L134.754 280.132C122.748 277.803 111.146 273.472 100.109 268.001C96.7852 266.355 93.4898 264.591 90.2519 262.77ZM89.668 263.732L90.2519 262.77L90.4451 263.536L89.4749 262.966L89.1987 263.425L89.668 263.732Z" fill="#7A8FA6"/>
<path id="eye1" d="M102.519 271.292C100.657 269.886 98.7948 268.48 96.9325 267.074C96.7486 267.379 96.5784 267.671 96.4014 267.981C92.9728 273.183 92.0791 281.408 95.328 286.597C95.4828 286.901 95.6381 287.19 95.8019 287.486C96.6088 287.148 97.4157 286.809 98.2226 286.471C98.1367 286.171 98.06 285.883 97.9856 285.585C96.4324 280.127 98.2665 275.708 101.917 271.926C102.117 271.71 102.312 271.506 102.519 271.292Z" fill="#7A8FA6"/>
<path id="eyebrow" d="M71.6289 227.427C71.8582 227.724 72.0875 228.02 72.3168 228.317C74.7393 226.867 78.0164 226.518 81.0329 226.154C93.3362 225.086 105.981 225.888 117.794 229.055C118.085 229.137 118.374 229.222 118.66 229.308C131.879 233.173 145.989 237.806 151.839 250.65L154.15 249.062C141.392 239.281 126.275 237.883 111.754 235.369C97.7336 233.078 83.5217 236.233 70.0407 238.285L70.7565 238.729C70.4605 237.988 70.2191 237.119 70.0599 236.282C69.4736 233.383 69.9531 230.113 72.3168 228.317C72.0875 228.02 71.8582 227.724 71.6289 227.427C68.7714 229.472 68.139 233.377 68.714 236.52C68.8711 237.455 69.0877 238.347 69.43 239.271L69.6361 239.758L70.1459 239.715C84.1136 237.936 97.7281 235.178 111.433 237.631C125.513 240.159 141.362 242.556 152.037 250.938L154.348 249.35C148.194 235.445 132.524 230.196 119.526 226.436C119.224 226.345 118.92 226.256 118.613 226.169C106.204 222.853 93.3375 222.478 80.7873 224.371C77.6746 224.976 74.4679 225.432 71.6289 227.427ZM72.3168 228.317L71.6289 227.427L72.3168 228.317Z" fill="#7A8FA6"/>
</g>
<g id="Ear">
<path id="Vector 6" d="M293.593 321.5C297.093 309.5 306.932 287.752 321.593 289C345.093 291 348.093 306.84 348.093 335C348.093 347.5 345.593 363 337.093 379" stroke="#7A8FA6" stroke-width="2"/>
<path id="Vector 8" d="M303.593 330.5C332.593 326.5 325.093 356.5 318.593 372C317.982 373.458 313.593 386.143 307.593 385C297.093 383 300.093 372.5 296.093 372C292.893 371.6 290.76 374.5 290.093 376" stroke="#7A8FA6" stroke-width="2"/>
<path id="ear" d="M274.531 316.5C283.955 284.145 299.383 273.461 321.093 274C342.803 274.539 359.593 287.645 359.593 318.5C359.593 344.923 357.593 354 349.093 376.5C338.929 403.404 325.435 403.822 321.093 420C317.877 431.984 307.955 435.43 300.093 433C292.231 430.57 286.093 415.5 281.593 394.5" stroke="#7A8FA6" stroke-width="4"/>
<path id="Vector 7" d="M295.593 319.5C302.093 319.5 323.093 305 314.593 290.5" stroke="#7A8FA6" stroke-width="2"/>
<path id="ear-part" d="M294.593 349.5C299.793 355.1 296.76 359.833 294.593 361.5" stroke="#7A8FA6" stroke-width="2"/>
</g>
<g id="Hair lines">
<path id="hair_line1" d="M91.5933 125C125.093 104.5 161.692 107.729 182.593 115.5C221.593 130 234.292 169.394 223.093 200.5C214.093 225.5 237.093 243 232.593 287C231.525 297.446 234.357 323.815 237.093 328C245.593 341 258.593 337 265.593 328" stroke="#7A8FA6" stroke-width="2" stroke-linecap="round" stroke-dasharray="8 8"/>
<path id="hair_line2" d="M354.853 376.046C354.853 403.009 362.563 417.562 375.27 438.061C387.978 458.559 430.776 482.49 460.093 489.5" stroke="#7A8FA6" stroke-width="2" stroke-dasharray="8 8"/>
<path id="coronal_line" d="M318.597 4.0432L324.613 645.052" stroke="#7A8FA6" stroke-dasharray="10 10"/>
</g>
<path id="Yang" d="M407.951 0.318182H409.363L412.187 5.07102H412.306L415.13 0.318182H416.542L412.863 6.30398V10.5H411.63V6.30398L407.951 0.318182ZM419.227 10.679C418.743 10.679 418.304 10.5878 417.909 10.4055C417.515 10.2199 417.202 9.95312 416.97 9.60511C416.738 9.25379 416.622 8.82955 416.622 8.33239C416.622 7.89489 416.708 7.54025 416.88 7.26847C417.053 6.99337 417.283 6.77794 417.571 6.62216C417.86 6.46638 418.178 6.35038 418.526 6.27415C418.877 6.1946 419.23 6.13163 419.585 6.08523C420.049 6.02557 420.425 5.98082 420.713 5.95099C421.005 5.91785 421.217 5.86316 421.35 5.78693C421.486 5.7107 421.554 5.57812 421.554 5.3892V5.34943C421.554 4.8589 421.419 4.47775 421.151 4.20597C420.886 3.93419 420.483 3.7983 419.943 3.7983C419.383 3.7983 418.943 3.92093 418.625 4.16619C418.307 4.41146 418.083 4.6733 417.954 4.9517L416.84 4.55398C417.039 4.08996 417.304 3.72869 417.636 3.47017C417.971 3.20833 418.335 3.02604 418.73 2.9233C419.127 2.81723 419.518 2.7642 419.903 2.7642C420.148 2.7642 420.43 2.79403 420.748 2.85369C421.07 2.91004 421.38 3.0277 421.678 3.20668C421.979 3.38565 422.23 3.65578 422.429 4.01705C422.627 4.37831 422.727 4.86222 422.727 5.46875V10.5H421.554V9.46591H421.494C421.414 9.63163 421.282 9.80895 421.096 9.99787C420.911 10.1868 420.664 10.3475 420.355 10.4801C420.047 10.6127 419.671 10.679 419.227 10.679ZM419.406 9.625C419.87 9.625 420.261 9.53385 420.579 9.35156C420.901 9.16927 421.143 8.93395 421.305 8.6456C421.471 8.35724 421.554 8.05398 421.554 7.7358V6.66193C421.504 6.72159 421.394 6.77628 421.225 6.82599C421.06 6.8724 420.867 6.91383 420.649 6.95028C420.433 6.98343 420.223 7.01326 420.017 7.03977C419.815 7.06297 419.651 7.08286 419.525 7.09943C419.22 7.1392 418.935 7.20384 418.67 7.29332C418.408 7.3795 418.196 7.51042 418.034 7.68608C417.875 7.85843 417.795 8.09375 417.795 8.39205C417.795 8.79972 417.946 9.10795 418.247 9.31676C418.552 9.52225 418.938 9.625 419.406 9.625ZM426.042 5.90625V10.5H424.868V2.86364H426.002V4.05682H426.101C426.28 3.66903 426.552 3.35748 426.917 3.12216C427.281 2.88352 427.752 2.7642 428.329 2.7642C428.846 2.7642 429.298 2.87027 429.686 3.08239C430.074 3.29119 430.375 3.60938 430.591 4.03693C430.806 4.46117 430.914 4.99811 430.914 5.64773V10.5H429.74V5.72727C429.74 5.12737 429.585 4.66004 429.273 4.32528C428.962 3.98722 428.534 3.81818 427.99 3.81818C427.616 3.81818 427.281 3.89938 426.986 4.06179C426.695 4.22419 426.464 4.46117 426.295 4.77273C426.126 5.08428 426.042 5.46212 426.042 5.90625ZM436.14 13.5227C435.573 13.5227 435.086 13.4498 434.679 13.304C434.271 13.1615 433.931 12.9725 433.659 12.7372C433.391 12.5052 433.177 12.2566 433.018 11.9915L433.953 11.3352C434.059 11.4744 434.193 11.6335 434.355 11.8125C434.518 11.9948 434.74 12.1522 435.022 12.2848C435.307 12.4207 435.679 12.4886 436.14 12.4886C436.757 12.4886 437.265 12.3395 437.666 12.0412C438.067 11.7429 438.268 11.2756 438.268 10.6392V9.08807H438.169C438.082 9.22727 437.96 9.39962 437.801 9.60511C437.645 9.80729 437.42 9.98793 437.125 10.147C436.833 10.3028 436.438 10.3807 435.941 10.3807C435.325 10.3807 434.771 10.2348 434.281 9.94318C433.794 9.65152 433.407 9.22727 433.122 8.67045C432.841 8.11364 432.7 7.4375 432.7 6.64205C432.7 5.85985 432.837 5.17874 433.112 4.59872C433.388 4.01539 433.77 3.56463 434.261 3.24645C434.751 2.92495 435.318 2.7642 435.961 2.7642C436.458 2.7642 436.853 2.84706 437.144 3.01278C437.439 3.17519 437.665 3.3608 437.821 3.5696C437.98 3.77509 438.102 3.94413 438.188 4.0767H438.308V2.86364H439.441V10.7188C439.441 11.375 439.292 11.9086 438.994 12.3196C438.699 12.7339 438.301 13.0372 437.801 13.2294C437.304 13.425 436.75 13.5227 436.14 13.5227ZM436.1 9.3267C436.571 9.3267 436.969 9.21899 437.294 9.00355C437.618 8.78812 437.865 8.47822 438.034 8.07386C438.203 7.66951 438.288 7.18561 438.288 6.62216C438.288 6.07197 438.205 5.58641 438.039 5.16548C437.874 4.74455 437.628 4.41477 437.304 4.17614C436.979 3.9375 436.578 3.81818 436.1 3.81818C435.603 3.81818 435.189 3.94413 434.857 4.19602C434.529 4.44792 434.282 4.78598 434.117 5.21023C433.954 5.63447 433.873 6.10511 433.873 6.62216C433.873 7.15246 433.956 7.62145 434.122 8.02912C434.291 8.43348 434.539 8.75166 434.867 8.98366C435.199 9.21236 435.61 9.3267 436.1 9.3267Z" fill="#FF0808"/>
<path id="Yin" d="M198.951 0.318182H200.363L203.187 5.07102H203.306L206.13 0.318182H207.542L203.863 6.30398V10.5H202.63V6.30398L198.951 0.318182ZM208.978 10.5V2.86364H210.151V10.5H208.978ZM209.574 1.59091C209.346 1.59091 209.148 1.51302 208.983 1.35724C208.82 1.20147 208.739 1.0142 208.739 0.795455C208.739 0.576705 208.82 0.389441 208.983 0.233664C209.148 0.0778881 209.346 0 209.574 0C209.803 0 209.999 0.0778881 210.161 0.233664C210.327 0.389441 210.41 0.576705 210.41 0.795455C210.41 1.0142 210.327 1.20147 210.161 1.35724C209.999 1.51302 209.803 1.59091 209.574 1.59091ZM213.473 5.90625V10.5H212.3V2.86364H213.433V4.05682H213.533C213.712 3.66903 213.984 3.35748 214.348 3.12216C214.713 2.88352 215.183 2.7642 215.76 2.7642C216.277 2.7642 216.73 2.87027 217.117 3.08239C217.505 3.29119 217.807 3.60938 218.022 4.03693C218.238 4.46117 218.345 4.99811 218.345 5.64773V10.5H217.172V5.72727C217.172 5.12737 217.016 4.66004 216.705 4.32528C216.393 3.98722 215.966 3.81818 215.422 3.81818C215.048 3.81818 214.713 3.89938 214.418 4.06179C214.126 4.22419 213.896 4.46117 213.727 4.77273C213.558 5.08428 213.473 5.46212 213.473 5.90625Z" fill="#CB6608"/>
<g id="sutures_side">
<path id="coronal_suture" d="M299.361 27.6879C281.561 37.3945 267.95 48.7189 262.191 61.1217C256.433 73.5246 250.674 92.3985 247.533 97.791C244.392 103.184 241.251 109.655 237.586 115.047C234.654 119.361 229.035 132.663 226.592 138.774L220.834 154.952V177.061L215.075 187.307" stroke="#7A8FA6" stroke-dasharray="2 2"/>
<path id="squamouse_suture" d="M442.28 312.954C429.192 316.189 424.481 302.168 416.628 300.011C410.346 298.286 405.285 289.945 400.399 285.991C394.466 275.386 382.39 252.988 381.553 248.243C380.506 242.311 366.894 228.83 364.8 221.82C362.706 214.809 359.041 197.553 350.665 192.7C346.568 190.326 335.728 186.608 329.725 181.375C318.38 171.488 298.837 165.198 273.709 173.287C233.618 186.191 232.874 197.553 214.551 189.464C214.551 189.464 208.269 188.386 201.463 188.386C194.658 188.386 186.805 197.553 186.805 197.553C173.717 209.417 171.309 224.3 167.959 229.908" stroke="#7A8FA6" stroke-dasharray="2 2"/>
<path id="lamboid_suture" d="M547.593 221.5L524.593 253.5C524.593 253.5 511.897 264.981 501.093 277.5C490.29 290.019 479.45 300.011 479.45 300.011C472.47 303.067 448.443 311.43 442.28 312.954" stroke="#7A8FA6" stroke-dasharray="2 2"/>
<path id="Vector 10" d="M479.093 303.5C474.093 313.5 469.093 314 467.093 322.5C465.093 331 464.593 344.5 462.093 348.5C459.593 352.5 460.593 349.5 455.593 356.5C444.093 371 446.093 377 439.593 382C433.093 387 429.593 392 428.593 395.5C424.993 405.5 420.093 412.667 418.093 415L407.093 424L389.593 431.5" stroke="#7A8FA6" stroke-dasharray="4 4"/>
<path id="mastoid process" d="M338.093 415.5C342.593 427.5 358.593 423.5 367.593 411.5C374.793 401.9 379.593 390.833 381.093 386.5" stroke="#7A8FA6" stroke-dasharray="4 4"/>
</g>
<g id="extra-lumbar-point">
<circle id="I-yang" cx="479.593" cy="263.5" r="4" fill="#34B904"/>
<circle id="I-yin" cx="235.593" cy="118.5" r="4" fill="#34B904"/>
<path id="H-yang" d="M519.593 245C519.593 247.209 517.802 249 515.593 249C513.384 249 511.593 247.209 511.593 245C511.593 242.791 513.384 241 515.593 241C517.802 241 519.593 242.791 519.593 245Z" fill="#34B904"/>
<circle id="H-yin" cx="152.593" cy="100.5" r="4" fill="#34B904"/>
</g>
<g id="ear-points">
<circle id="ear-yin" cx="167.593" cy="165.5" r="4" fill="#0845FF"/>
<circle id="extra-ear-yin" cx="280.593" cy="117.5" r="4" fill="#0845FF"/>
<circle id="extra-ear-yang" cx="368.593" cy="138.5" r="4" fill="#0845FF"/>
<circle id="ear-yang" cx="442.593" cy="237.5" r="4" fill="#0845FF"/>
</g>
<g id="basic-yang">
<circle id="G1-yang" cx="333.593" cy="418.5" r="4" fill="#FF0808"/>
<path id="G2-yang" d="M349.593 428.5C349.593 430.709 347.802 432.5 345.593 432.5C343.384 432.5 341.593 430.709 341.593 428.5C341.593 426.291 343.384 424.5 345.593 424.5C347.802 424.5 349.593 426.291 349.593 428.5Z" fill="#FF0808"/>
<path id="G3-yang" d="M364.593 424.5C364.593 426.709 362.802 428.5 360.593 428.5C358.384 428.5 356.593 426.709 356.593 424.5C356.593 422.291 358.384 420.5 360.593 420.5C362.802 420.5 364.593 422.291 364.593 424.5Z" fill="#FF0808"/>
<circle id="F-yang" cx="361.593" cy="393.5" r="4" fill="#FF0808"/>
<circle id="D6-yang" cx="360.593" cy="290.5" r="4" fill="#FF0808"/>
<circle id="D5-yang" cx="355.593" cy="283.5" r="4" fill="#FF0808"/>
<circle id="D4-yang" cx="349.593" cy="277.5" r="4" fill="#FF0808"/>
<circle id="D3-yang" cx="341.593" cy="272.5" r="4" fill="#FF0808"/>
<circle id="D2-yang" cx="333.593" cy="269.5" r="4" fill="#FF0808"/>
<circle id="D1-yang" cx="325.593" cy="267.5" r="4" fill="#FF0808"/>
<circle id="D-yang" cx="396.593" cy="315.5" r="4" fill="#FF0808"/>
<path id="c---yang" d="M489.397 281.934L501.116 296.249M507.45 303.987L501.116 296.249M501.364 304.446L501.116 296.249M501.116 296.249L509.102 298.111M501.116 296.249L496.579 302.548M501.116 296.249L507.799 293.362" stroke="#FF0808" stroke-width="2"/>
<circle id="C-yang" cx="487.593" cy="280.5" r="4" fill="#FF0808"/>
<circle id="E12-yang" cx="533.593" cy="325.5" r="4" fill="#FF0808"/>
<path id="e---yang" d="M517.593 318L533.093 326" stroke="#FF0808" stroke-width="2"/>
<circle id="E1-yang" cx="516.593" cy="317.5" r="4" fill="#FF0808"/>
<circle id="A8-yang" cx="531.593" cy="232.5" r="4" fill="#FF0808"/>
<circle id="A1-yang" cx="542.593" cy="257.5" r="4" fill="#FF0808"/>
<path id="a---yang" d="M533.093 234L542.593 256.5" stroke="#FF0808" stroke-width="2"/>
<circle id="B-yang" cx="520.593" cy="257.5" r="4" fill="#FF0808"/>
</g>
<g id="basic-yin">
<circle id="G3-yin" cx="244.593" cy="283.5" r="4" fill="#CB6608"/>
<path id="G2-yin" d="M238.093 283.5C238.093 285.709 236.302 287.5 234.093 287.5C231.884 287.5 230.093 285.709 230.093 283.5C230.093 281.291 231.884 279.5 234.093 279.5C236.302 279.5 238.093 281.291 238.093 283.5Z" fill="#CB6608"/>
<circle id="G1-yin" cx="223.593" cy="283.5" r="4" fill="#CB6608"/>
<circle id="E1-yin" cx="103.593" cy="209.5" r="4" fill="#CB6608"/>
<path id="e---yin" d="M70.5933 218.5L86.3433 214L102.093 209.5" stroke="#CB6608" stroke-width="2"/>
<circle id="E12-yin" cx="69.5933" cy="217.5" r="4" fill="#CB6608"/>
<circle id="D-yin" cx="232.593" cy="298.5" r="4" fill="#CB6608"/>
<path id="c---yin" d="M221.512 132.769L204.093 147.77M195.634 156.463L204.093 147.77M195.569 149.722L204.093 147.77M204.093 147.77L202.291 157.527M204.093 147.77L198.126 144.122M204.093 147.77L207.872 155.44" stroke="#CB6608" stroke-width="2"/>
<circle id="C-yin" cx="223.093" cy="131.5" r="4" fill="#CB6608"/>
<circle id="B-yin" cx="150.593" cy="116.5" r="4" fill="#CB6608"/>
<circle id="YNSA-A1-yin" cx="107.593" cy="128.5" r="4" fill="#CB6608"/>
<path id="a---yin" d="M129.093 106L107.593 128" stroke="#CB6608" stroke-width="2"/>
<circle id="YNSA-A8-yin" cx="129.593" cy="104.5" r="4" fill="#CB6608"/>
</g>
<g id="Group 1">
<circle id="D1-yin" cx="270.093" cy="283.625" r="3.5" fill="#CB6608"/>
<circle id="D6-yin" cx="270.093" cy="323" r="3.5" fill="#CB6608"/>
<circle id="D5-yin" cx="270.093" cy="315.125" r="3.5" fill="#CB6608"/>
<circle id="D4-yin" cx="270.093" cy="307.25" r="3.5" fill="#CB6608"/>
<circle id="D3-yin" cx="270.093" cy="299.375" r="3.5" fill="#CB6608"/>
<circle id="D2-yin" cx="270.093" cy="291.5" r="3.5" fill="#CB6608"/>
</g>
</g>
</svg>
