<svg width="447" height="626" viewBox="0 0 447 626" fill="none" xmlns="http://www.w3.org/2000/svg">
<g id="Back">
<g id="head back body">
<path id="head_silouette_back" d="M85.4926 625.668C84.8848 625.523 84.2769 625.377 83.669 625.232C89.2481 600.773 91.5951 575.62 92.2732 550.555C92.4909 519.059 92.943 484.853 82.9914 456.722C69.9579 433.757 68.6917 408.811 62.3316 384.975C48.5403 344.286 30.5463 302.635 25.5148 258.509C22.2485 234.279 21.4614 209.744 22.8175 185.313C20.1342 83.7069 112.754 -3.6021 213.227 0.114469L213.307 0.113081C216.807 0.116198 220.307 0.11936 223.807 0.122567C226.307 0.124857 228.807 0.127171 231.307 0.129507L231.387 0.130886C279.047 1.85524 329.368 11.9934 367.014 43.702C405.115 75.1356 421.101 125.586 423.256 173.202C428.24 245.819 408.824 317.434 385.309 384.801C378.992 408.621 377.625 433.766 364.881 456.309C354.71 485.096 355.449 518.965 355.754 550.567C356.534 575.646 359.005 600.804 364.719 625.232C364.111 625.377 363.503 625.523 362.896 625.668C357.004 601.095 354.392 575.832 353.478 550.64C353.184 518.538 351.509 486.078 362.733 454.591C374.372 433.842 376.202 407.852 382.306 384.1C405.729 315.903 424.485 245.513 419.358 173.417C417.062 126.36 401.209 77.3483 364.229 47.0081C327.684 16.3512 278.369 6.37207 231.227 4.76943L231.307 4.77081C228.807 4.77314 226.307 4.77546 223.807 4.77775C220.307 4.78095 216.807 4.78412 213.307 4.78723L213.388 4.78585C114.396 1.77488 25.5606 85.6452 27.797 185.587C26.4655 209.733 27.2488 233.945 30.4702 257.842C35.5028 301.587 52.7986 341.648 66.8301 383.925C72.89 407.661 74.8214 433.851 86.1703 454.179C97.6144 486.321 95.6525 518.444 95.2716 550.651C94.2551 575.858 91.5194 601.126 85.4926 625.668Z" fill="#7A8FA6"/>
<path id="Vector 32" d="M24.5706 250.857C24.7284 250.253 24.8861 249.648 25.0439 249.043C21.9328 248.014 18.4388 247.533 15.0104 248.35C0.125009 253.285 -0.407919 270.786 0.124765 282.893C0.74694 291.893 2.66936 300.72 5.48252 309.213C10.6055 327.218 21.5884 342.294 22.8349 360.723C24.2208 369.321 26.162 378.354 32.2145 385.477C38.3943 392.692 47.7937 394.595 55.9855 396.577C59.0637 397.3 62.1328 398.023 65.1706 398.849C65.3477 398.25 65.5248 397.65 65.7019 397.051C62.6646 396.08 59.5966 395.219 56.5531 394.371C48.3615 392.07 39.7311 389.796 34.6832 383.39C29.6028 377.052 27.8868 368.525 26.7795 360.177C25.9563 341.236 14.8636 325.059 10.1319 307.687C7.49822 299.52 5.6985 291.047 5.11344 282.557C4.51627 270.912 4.89171 255.781 15.8423 251.233C18.4881 250.285 21.5659 250.281 24.5706 250.857Z" fill="#7A8FA6"/>
<path id="Vector 33" d="M419.673 247.857C419.515 247.253 419.357 246.648 419.2 246.043C422.421 244.977 426.065 244.622 429.543 245.586C444.198 250.799 446.617 267.779 446.887 280.479C446.889 290.344 445.206 300.088 442.126 309.396C437.002 327.4 426.02 342.479 424.781 360.909C423.377 369.796 421.201 379.045 415.138 386.408C409.028 393.876 399.62 396.648 391.154 398.879C387.996 399.709 384.837 400.494 381.702 401.349C381.525 400.75 381.348 400.15 381.171 399.551C384.292 398.555 387.43 397.637 390.53 396.688C398.921 394.138 407.507 391.117 412.628 384.369C417.8 377.7 419.703 368.982 420.834 360.362C421.664 341.422 432.758 325.248 437.489 307.875C440.337 299.029 441.892 289.751 441.887 280.491C441.691 268.417 439.762 253.45 428.619 248.439C425.899 247.369 422.758 247.257 419.673 247.857Z" fill="#7A8FA6"/>
<path id="hairline_back" d="M411.436 274.445C380.402 296.418 378.969 355.743 344.316 393.899C320.005 420.666 293.626 431.453 226.902 433.45H219.66C152.936 431.453 130.178 421.065 105.867 394.298C71.2138 356.143 67.4708 292.423 36.4363 270.45" stroke="#7A8FA6" stroke-width="2" stroke-dasharray="10 10"/>
<path id="sagittal_suture" d="M239.936 31.9502L236.898 35.8102L236.898 39.6302L239.936 42.9502V50.4502L236.898 57.9502L239.936 62.9502L235.936 68.4502L239.936 76.4502L235.936 82.9502L239.936 87.4502L236.898 93.5302L239.936 101.45L235.936 109.45L239.936 111.45L236.898 118.45L241.436 122.95L238.436 129.45L236.898 134.95L236.898 137.45L241.436 142.45L238.436 144.45V148.95L236.898 155.95L241.436 159.95L238.436 166.45M236.898 39.6302L239.936 31.9502L236.898 28.5302L239.936 21.9502L236.898 15.5302L235.936 12.4502L238.436 5.45016L238.436 2.45016" stroke="#7A8FA6" stroke-dasharray="2 2"/>
<path id="lamboid_suture" d="M233.436 166.45L227.334 166.45H221.858H216.88H209.412L202.571 166.45C197.593 166.45 197.475 170.375 192.117 170.375C185.147 170.375 185.621 173.809 177.68 173.809C169.715 176.261 169.715 177.038 163.243 180.186C160.956 181.298 156.273 182.148 151.295 184.601C150.299 185.746 149.588 186.283 146.815 189.016C143.33 192.45 142.334 192.45 140.343 192.941C138.75 193.333 136.232 196.211 135.734 197.846C136.066 199.645 133.174 203.929 132.378 206.677C131.382 210.111 130.386 210.111 126.902 212.563C124.114 214.526 124.413 215.997 123.658 217.96L119.306 225.809V231.695V235.62L115.821 242.978L112.834 250.337V255.733L107.358 262.601V268.488L103.873 272.903L97.8993 277.809V283.205C97.4015 284.513 95.5097 287.62 91.9254 289.582C88.3411 291.545 90.4319 294.324 91.9254 295.469V305.771C92.7551 308.551 93.4189 315.778 89.4363 322.45" stroke="#7A8FA6" stroke-dasharray="2 2"/>
<path id="transvere_occipital_suture" d="M145.307 232.95H151.807L156.307 236.95L163.436 245.95C171.947 248.503 173.751 253.45 178.936 253.45C181.936 253.45 189.975 257.058 191.936 257.45C199.436 258.95 201.974 260.45 203.807 261.45C205.641 262.45 207.364 262.004 210.936 262.45C214.936 262.95 222.436 263.45 226.436 262.45H233.436M145.307 232.95L148.307 236.95L141.307 242.95L136.307 247.95L126.307 245.95L116.807 253.45M145.307 232.95C136.807 228.95 131.507 219.95 126.307 217.95" stroke="#7A8FA6" stroke-dasharray="2 2"/>
<path id="parietomastoid_suture" d="M33.3073 288.95C35.1406 287.617 39.1073 285.35 40.3073 286.95C41.8073 288.95 40.8073 290.45 42.8073 292.95C44.4073 294.95 51.1406 298.117 54.3073 299.45C55.1406 300.117 57.0073 301.85 57.8073 303.45C58.6073 305.05 63.1406 309.45 65.3073 311.45L74.8073 314.95L80.8073 317.95L84.8073 321.45V328.95C85.1406 330.283 86.0073 333.45 86.8073 335.45C87.8073 337.95 91.8073 345.45 91.8073 347.45C91.8073 349.45 97.3073 357.95 98.3073 359.95C99.1073 361.55 102.307 367.283 103.807 369.95L113.807 391.95M323.307 385.45L332.307 380.45L337.307 372.45V369.95C338.474 369.117 342.807 364.15 342.807 362.95C342.807 361.45 342.807 355.45 342.807 351.45C342.807 347.45 342.807 345.45 342.807 342.95C342.807 340.45 342.807 335.45 342.807 332.95C342.807 330.45 341.307 325.45 342.807 321.95C344.007 319.15 346.307 315.117 347.307 313.45C347.474 310.283 348.407 303.25 350.807 300.45C353.207 297.65 356.807 299.283 358.307 300.45H369.307C371.307 301.45 376.307 303.55 380.307 303.95C385.307 304.45 384.307 301.95 385.307 300.45C386.107 299.25 389.974 296.95 391.807 295.95L398.307 289.95L409.807 282.45" stroke="#7A8FA6" stroke-dasharray="2 2"/>
<g id="scalp_line">
<path id="Vector 38" d="M69.8073 386.227C81.8512 395.275 92.8478 397.789 104.892 393.767C116.936 389.746 123.743 386.227 133.692 384.217C143.642 382.206 162.493 379.693 181.344 379.693C196.425 379.693 204.909 366.623 224.807 366.623" stroke="#7A8FA6" stroke-dasharray="2 2"/>
<path id="Vector 39" d="M378.807 386.227C366.763 395.275 355.767 397.789 343.723 393.767C331.679 389.746 324.871 386.227 314.922 384.217C304.973 382.206 286.121 379.693 267.27 379.693C252.189 379.693 243.706 366.623 223.807 366.623" stroke="#7A8FA6" stroke-dasharray="2 2"/>
</g>
<path id="lamboid_suture_2" d="M233.436 166.45L239.539 166.45H245.015H249.993H257.46L264.301 166.45C269.28 166.45 269.398 170.375 274.756 170.375C281.725 170.375 281.251 173.809 289.193 173.809C297.158 176.261 297.158 177.038 303.63 180.186C305.916 181.298 310.599 182.148 315.577 184.601C316.573 185.746 317.284 186.283 320.058 189.016C323.543 192.45 324.538 192.45 326.53 192.941C328.123 193.333 330.641 196.211 331.139 197.846C330.807 199.645 333.698 203.929 334.495 206.677C335.49 210.111 336.486 210.111 339.971 212.563C342.759 214.526 342.46 215.997 343.215 217.96L347.567 225.809V231.695V235.62L351.052 242.978L354.038 250.337V255.733L359.515 262.601V268.488L362.999 272.903L368.973 277.809V283.205C369.471 284.513 371.363 287.62 374.947 289.582C378.531 291.545 376.441 294.324 374.947 295.469V305.771C374.117 308.551 373.454 315.778 377.436 322.45" stroke="#7A8FA6" stroke-dasharray="2 2"/>
<path id="transvere_occipital_suture_2" d="M321.565 232.45H315.065L310.565 236.45L303.436 245.45C294.926 248.003 293.122 252.95 287.936 252.95C284.936 252.95 276.897 256.558 274.936 256.95C267.436 258.45 264.899 259.95 263.065 260.95C261.232 261.95 259.508 261.504 255.936 261.95C251.936 262.45 244.436 262.95 240.436 261.95H233.436M321.565 232.45L318.565 236.45L325.565 242.45L330.565 247.45L340.565 245.45L350.065 252.95M321.565 232.45C330.065 228.45 335.365 219.45 340.565 217.45" stroke="#7A8FA6" stroke-dasharray="2 2"/>
</g>
<g id="Group 16">
<circle id="sensory-ear" cx="4" cy="4" r="4" transform="matrix(-1 0 0 1 274.436 208.45)" fill="#CB08A1"/>
<circle id="sensory-mouth" cx="4" cy="4" r="4" transform="matrix(-1 0 0 1 257.436 213.45)" fill="#CB08A1"/>
<circle id="sensory-nose" cx="4" cy="4" r="4" transform="matrix(-1 0 0 1 257.436 199.45)" fill="#CB08A1"/>
<circle id="sensory-eye" cx="4" cy="4" r="4" transform="matrix(-1 0 0 1 257.436 185.45)" fill="#CB08A1"/>
</g>
<g id="basic-yang-points">
<circle id="H-yang" cx="188.436" cy="156.45" r="4" fill="#34B904"/>
<path id="H-yang_2" d="M284.436 155.95C284.436 158.159 282.645 159.95 280.436 159.95C278.227 159.95 276.436 158.159 276.436 155.95C276.436 153.741 278.227 151.95 280.436 151.95C282.645 151.95 284.436 153.741 284.436 155.95Z" fill="#34B904"/>
<path id="I-yang" d="M347.436 178.45C347.436 180.659 345.645 182.45 343.436 182.45C341.227 182.45 339.436 180.659 339.436 178.45C339.436 176.241 341.227 174.45 343.436 174.45C345.645 174.45 347.436 176.241 347.436 178.45Z" fill="#34B904"/>
<path id="I-yang_2" d="M128.936 178.159C128.936 180.369 127.145 182.159 124.936 182.159C122.727 182.159 120.936 180.369 120.936 178.159C120.936 175.95 122.727 174.159 124.936 174.159C127.145 174.159 128.936 175.95 128.936 178.159Z" fill="#34B904"/>
<circle id="G3-yang" cx="4" cy="4" r="4" transform="matrix(-1 0 0 1 359.436 384.45)" fill="#FF0808"/>
<circle id="G2-yang" cx="4" cy="4" r="4" transform="matrix(-1 0 0 1 367.436 394.45)" fill="#FF0808"/>
<circle id="G1-yang" cx="4" cy="4" r="4" transform="matrix(-1 0 0 1 373.436 384.45)" fill="#FF0808"/>
<circle id="G3-yang_2" cx="93.4363" cy="380.45" r="4" fill="#FF0808"/>
<circle id="G2-yang_2" cx="85.4363" cy="390.45" r="4" fill="#FF0808"/>
<circle id="G1-yang_2" cx="79.4363" cy="380.45" r="4" fill="#FF0808"/>
<circle id="F" cx="377.436" cy="362.45" r="4" fill="#FF0808"/>
<circle id="F_2" cx="79.4363" cy="362.45" r="4" fill="#FF0808"/>
<circle id="E12-yang" cx="4" cy="4" r="4" transform="matrix(-1 0 0 1 258.436 280.45)" fill="#FF0808"/>
<circle id="E1-yang" cx="4" cy="4" r="4" transform="matrix(-1 0 0 1 287.436 270.45)" fill="#FF0808"/>
<path id="e---yang" d="M281.936 274.45L253.436 283.95" stroke="#FF0808"/>
<circle id="E12-yang_2" cx="212.436" cy="284.45" r="4" fill="#FF0808"/>
<path id="e---yang_2" d="M184.936 274.45L213.436 283.95" stroke="#FF0808"/>
<circle id="E1-yang_2" cx="183.436" cy="274.45" r="4" fill="#FF0808"/>
<circle id="D5-yang" cx="412.436" cy="253.45" r="4" fill="#FF0808"/>
<circle id="D5-yang_2" cx="33.4363" cy="255.45" r="4" fill="#FF0808"/>
<circle id="D6-yang" cx="39.4363" cy="261.45" r="4" fill="#FF0808"/>
<circle id="D-yang" cx="387.436" cy="270.45" r="4" fill="#FF0808"/>
<circle id="D6-yang_2" cx="407.436" cy="261.45" r="4" fill="#FF0808"/>
<circle id="D-yang_2" cx="71.4363" cy="274.45" r="4" fill="#FF0808"/>
<path id="c---yang" d="M337.544 195.892L328.448 212.001M323.532 220.709L328.448 212.001M329.607 220.12L328.448 212.001M328.448 212.001L320.899 215.203M328.448 212.001L333.996 217.43M328.448 212.001L321.37 210.301" stroke="#FF0808" stroke-width="2"/>
<path id="C-yang" d="M343.436 192.45C343.436 194.659 341.645 196.45 339.436 196.45C337.227 196.45 335.436 194.659 335.436 192.45C335.436 190.241 337.227 188.45 339.436 188.45C341.645 188.45 343.436 190.241 343.436 192.45Z" fill="#FF0808"/>
<path id="c---yang_2" d="M129.967 192.892L139.063 209.001M143.98 217.709L139.063 209.001M137.905 217.12L139.063 209.001M139.063 209.001L146.613 212.203M139.063 209.001L133.515 214.43M139.063 209.001L146.142 207.301" stroke="#FF0808" stroke-width="2"/>
<path id="C-yang_2" d="M133.436 192.45C133.436 194.659 131.645 196.45 129.436 196.45C127.227 196.45 125.436 194.659 125.436 192.45C125.436 190.241 127.227 188.45 129.436 188.45C131.645 188.45 133.436 190.241 133.436 192.45Z" fill="#FF0808"/>
<circle id="B-yang" cx="193.436" cy="169.45" r="4" fill="#FF0808"/>
<path id="B-yang_2" d="M279.436 169.45C279.436 171.659 277.645 173.45 275.436 173.45C273.227 173.45 271.436 171.659 271.436 169.45C271.436 167.241 273.227 165.45 275.436 165.45C277.645 165.45 279.436 167.241 279.436 169.45Z" fill="#FF0808"/>
<g id="Group 11">
<circle id="A-yang" cx="254.436" cy="174.45" r="4" fill="#FF0808"/>
<line id="a---yang" x1="254.436" y1="157.45" x2="254.436" y2="172.45" stroke="#FF0808" stroke-width="2"/>
<path id="A-yang_2" d="M258.436 156.45C258.436 158.659 256.645 160.45 254.436 160.45C252.227 160.45 250.436 158.659 250.436 156.45C250.436 154.241 252.227 152.45 254.436 152.45C256.645 152.45 258.436 154.241 258.436 156.45Z" fill="#FF0808"/>
</g>
<g id="Group 10">
<circle id="A-yang_3" cx="220.436" cy="173.45" r="4" fill="#FF0808"/>
<line id="a---yang_2" x1="220.436" y1="158.45" x2="220.436" y2="173.45" stroke="#FF0808" stroke-width="2"/>
<circle id="A-yang_4" cx="220.436" cy="156.45" r="4" fill="#FF0808"/>
</g>
</g>
<g id="Group 15">
<circle id="sensory-ear_2" cx="203.436" cy="212.45" r="4" fill="#CB08A1"/>
<circle id="sensory-mouth_2" cx="220.436" cy="217.45" r="4" fill="#CB08A1"/>
<circle id="sensory-nose_2" cx="220.436" cy="203.45" r="4" fill="#CB08A1"/>
<circle id="sensory-eye_2" cx="220.436" cy="189.45" r="4" fill="#CB08A1"/>
</g>
<ellipse id="Basal-ganglia" cx="238.436" cy="132.95" rx="4" ry="7.5" fill="#B4CB08"/>
<circle id="Cerebrum" cx="220.436" cy="137.45" r="4" fill="#B4CB08"/>
<circle id="Cerebellum" cx="220.436" cy="127.45" r="4" fill="#B4CB08"/>
<circle id="Cerebrum_2" cx="254.436" cy="136.45" r="4" fill="#B4CB08"/>
<circle id="Cerebellum_2" cx="254.436" cy="126.45" r="4" fill="#B4CB08"/>
</g>
</svg>
