<svg width="439" height="588" viewBox="0 0 439 588" fill="none" xmlns="http://www.w3.org/2000/svg">
<g id="head_front">
<path id="head_front_view" d="M36.9084 133.5C46.9084 65 116.205 2.50006 217.516 2.5H223.506C324.817 2.50006 384.643 56.7095 399.908 128C415.408 200.386 403.408 219 390.409 297C384.298 333.664 374.335 414.457 334.909 458.5C304.671 492.279 280.899 513.5 224.006 513.5H219.687C162.793 513.5 130.146 492.279 99.9084 458.5C60.482 414.457 62.7141 375.415 52.9084 340.331C39.7595 293.284 25.3599 212.607 36.9084 133.5Z" stroke="#434040" stroke-width="5"/>
<path id="frontal_hairline" d="M407.409 216.5C391.951 211.451 357.065 199.059 357.065 157.752C357.065 130.286 357.638 109.101 326.149 91.6596C294.734 74.2594 270.689 91.5783 219.979 91.6593C219.87 91.6595 219.82 91.5191 219.909 91.4556C219.998 91.392 219.948 91.2514 219.838 91.2512C169.128 91.1702 145.083 73.8514 113.668 91.2515C82.1797 108.692 82.7522 129.878 82.7522 157.344C82.7522 198.651 47.8667 211.043 32.4087 216.092" stroke="#434040" stroke-width="2" stroke-linejoin="round" stroke-dasharray="6 6"/>
<path id="Vector 22" d="M201.802 468.5C210.802 466.5 222.802 465 231.302 468.5" stroke="#434040" stroke-width="3"/>
<g id="nose">
<path id="Vector 17" d="M188.982 295C181.085 315 171.365 329.5 169.542 338C167.72 346.5 184.73 353.5 208.422 353.5" stroke="#434040" stroke-width="3" stroke-linecap="round"/>
<path id="Vector 19" d="M183.515 339C191.412 339.5 196.272 341 203.562 345" stroke="#434040" stroke-width="3" stroke-linecap="round"/>
<path id="Vector 20" d="M241.835 294.5C249.732 314.5 259.452 329 261.275 337.5C263.097 346 246.087 353 222.395 353" stroke="#434040" stroke-width="3" stroke-linecap="round"/>
<path id="Vector 21" d="M247.302 338.5C239.405 339 234.545 340.5 227.255 344.5" stroke="#434040" stroke-width="3" stroke-linecap="round"/>
</g>
<g id="mouth">
<path id="Vector 40" d="M160.409 405.5C169.909 407 176.409 408.5 182.909 407.5C189.409 406.5 195.909 405.5 202.409 405.5C208.909 405.5 216.409 407.5 221.409 407.5C226.409 407.5 233.909 405.5 240.409 405.5C246.909 405.5 253.409 406.5 259.909 407.5C266.409 408.5 272.909 407 282.409 405.5" stroke="#434040" stroke-width="3"/>
<path id="Vector 14" d="M221.408 430.016C248.027 430.262 274.301 421.75 284.408 404L282.408 403.5C271.408 401.633 256.908 389.5 242.408 389.5C233.408 389.5 229.408 396.5 221.408 396.5C213.408 396.5 209.408 389.5 200.408 389.5C185.908 389.5 171.408 401.633 160.408 403.5L158.408 404C168.516 421.75 194.79 430.262 221.408 430.016Z" stroke="#434040" stroke-width="3"/>
</g>
<g id="ear_front_left">
<path id="Vector 25" d="M408.371 216.284C416.871 206.784 437.883 208.983 435.408 233.5C430.946 277.716 417.908 283.5 414.408 310C412.152 327.082 414.281 325.169 408.371 340.284C402.461 355.399 383.408 349.5 385.908 333.5" stroke="#434040" stroke-width="5"/>
</g>
<g id="neck_front">
<path id="Vector 30" d="M92.4083 448.5C95.9083 476.5 98.4083 564.172 85.4083 586.664" stroke="#434040" stroke-width="5"/>
<path id="Vector 31" d="M347.408 443.5C342.908 466.91 345.301 563.221 354.801 582.5" stroke="#434040" stroke-width="5"/>
</g>
<g id="eye">
<path id="Vector 42" d="M293.908 236C270.408 236 264.908 247.5 255.408 252.5C263.408 257 277.908 263 293.908 263C314.908 263 322.908 258 332.408 252.5C325.908 249.5 316.908 236 293.908 236Z" stroke="#434040" stroke-width="3"/>
<circle id="Ellipse 3" cx="13.5" cy="13.5" r="12" transform="matrix(-1 0 0 1 307.908 235.5)" stroke="#434040" stroke-width="3"/>
<circle id="Ellipse 4" cx="7.5" cy="7.5" r="6.25" transform="matrix(-1 0 0 1 301.408 241.5)" stroke="#434040" stroke-width="2.5"/>
<g id="eye_2">
<path id="Vector 42_2" d="M139.908 236C163.408 236 168.908 247.5 178.408 252.5C170.408 257 155.908 263 139.908 263C118.908 263 110.908 258 101.408 252.5C107.908 249.5 116.908 236 139.908 236Z" stroke="#434040" stroke-width="3"/>
<circle id="Ellipse 3_2" cx="139.408" cy="249" r="12" stroke="#434040" stroke-width="3"/>
<circle id="Ellipse 4_2" cx="139.908" cy="249" r="6.25" stroke="#434040" stroke-width="2.5"/>
</g>
<path id="eye_brow" d="M297.878 198.5C275.878 198.5 260.878 203 250.878 206.5C244.378 211 251.878 214.5 259.878 212C267.878 209.5 284.378 206.5 297.878 206.5C311.378 206.5 324.378 209 336.378 212C342.199 213.455 361.878 220.5 352.378 214.5C342.878 208.5 316.439 198.5 297.878 198.5Z" stroke="#434040" stroke-width="3"/>
<path id="eye_brow_2" d="M136.908 202C158.908 202 173.908 206.5 183.908 210C190.409 214.5 182.908 218 174.908 215.5C166.908 213 150.408 210 136.908 210C123.409 210 110.408 212.5 98.4084 215.5C92.5875 216.955 72.9084 224 82.4084 218C91.9084 212 118.348 202 136.908 202Z" stroke="#434040" stroke-width="3"/>
</g>
<g id="ear_front_left_2">
<path id="Vector 25_2" d="M33.5596 215.855C24.5553 206.373 0.116173 208.624 2.68834 233.137C7.32727 277.347 20.0958 283.104 23.7525 309.599C26.1096 326.677 24.9157 324.766 31.1568 339.869C37.3978 354.972 53.5167 350.996 50.8981 335" stroke="#434040" stroke-width="5"/>
</g>
</g>
</svg>
