<svg width="556" height="712" viewBox="0 0 556 712" fill="none" xmlns="http://www.w3.org/2000/svg">
<g id="Side">
<g id="Eye organ">
<path id="eye" d="M88.6586 262.77C88.464 263.091 88.2694 263.411 88.0748 263.732C91.1974 265.776 94.4074 267.75 97.6732 269.591C108.517 275.712 120.249 280.532 132.583 283.04L132.872 280.103C130.279 280.097 127.685 280.263 125.148 280.475C116.627 281.222 108.173 282.469 99.7812 283.97C95.5726 284.735 91.4183 285.557 87.209 286.6C85.1212 287.136 83.0296 287.657 80.914 288.549C80.617 288.68 80.3104 288.83 80.0486 288.986C79.9003 289.073 79.6865 289.212 79.5149 289.357C79.4255 289.431 79.3368 289.513 79.2486 289.61C79.1082 289.766 78.9565 289.967 78.8473 290.253C78.5676 290.811 78.8674 291.819 79.2953 292.136C79.5352 292.352 79.5915 292.369 79.7142 292.446C79.825 292.51 79.934 292.562 80.0434 292.609C80.1527 292.655 80.2626 292.695 80.3753 292.731C80.4812 292.765 80.5304 292.779 80.61 292.801C80.7584 292.841 80.9131 292.877 81.0762 292.91C81.4371 292.982 81.6827 293.016 81.9598 293.052C82.234 293.087 82.5486 293.12 82.8505 293.145C83.3441 293.187 83.8943 293.22 84.5067 293.244C84.7862 293.245 84.9796 293.338 84.8775 293.283C84.8358 293.256 84.7985 293.182 84.8469 293.268C84.897 293.346 84.9708 293.591 85.2421 293.978C85.5057 294.374 86.0735 294.738 86.483 294.834C86.8962 294.948 87.2413 294.949 87.5113 294.941C88.0801 294.915 88.5227 294.822 88.9762 294.719C90.6906 294.298 92.197 293.715 93.7481 293.117C108.116 288.439 124.292 287.931 139.204 282.642L139.011 280.482C123.594 276.538 109.51 266.754 95.6254 258.239C94.5779 257.57 93.5426 256.903 92.5218 256.243L91.9644 255.865L91.6102 256.454C90.3668 258.624 89.124 260.795 87.8816 262.966C88.205 263.156 88.5284 263.346 88.8518 263.536C90.1423 261.393 91.4322 259.25 92.7216 257.106L91.8101 257.317C92.8184 258.001 93.8417 258.69 94.8777 259.383C108.744 268.235 122.147 278.185 138.673 282.69L138.48 280.529C123.814 285.514 108.123 285.716 92.7548 290.546C91.2597 291.112 89.7497 291.668 88.3483 291.997C87.9944 292.077 87.6547 292.134 87.4154 292.14C87.3054 292.145 87.214 292.128 87.2491 292.134C87.2723 292.125 87.482 292.257 87.5138 292.322C87.5549 292.492 87.3325 291.595 86.5592 291.02C85.8035 290.485 85.1454 290.457 84.6282 290.419C84.0502 290.393 83.5405 290.358 83.0989 290.318C82.8288 290.293 82.5548 290.263 82.3274 290.232C82.099 290.201 81.8982 290.171 81.6489 290.12C81.4221 290.071 81.2835 290.033 81.1594 289.982C81.132 289.977 81.1052 289.931 81.262 290.065C81.3465 290.144 81.4871 290.316 81.5539 290.572C81.6245 290.832 81.5856 291.1 81.5211 291.264C81.3679 291.603 81.328 291.552 81.3444 291.556C81.354 291.547 81.4295 291.494 81.503 291.452C81.6284 291.378 81.8378 291.274 82.0656 291.175C83.774 290.462 85.8959 289.917 87.9055 289.418C92.0127 288.422 96.1349 287.624 100.303 286.88C108.616 285.422 117.03 284.197 125.401 283.464C127.887 283.256 130.428 283.084 132.872 283.069L133.161 280.132C121.155 277.803 109.553 273.472 98.5155 268.001C95.1919 266.355 91.8965 264.591 88.6586 262.77ZM88.0748 263.732L88.6586 262.77L88.8518 263.536L87.8816 262.966L87.6054 263.425L88.0748 263.732Z" fill="#7A8FA6"/>
<path id="eye1" d="M100.926 271.292C99.0638 269.886 97.2015 268.48 95.3392 267.074C95.1553 267.379 94.9851 267.671 94.8081 267.981C91.3795 273.183 90.4858 281.408 93.7348 286.597C93.8895 286.901 94.0448 287.19 94.2086 287.486C95.0155 287.148 95.8224 286.809 96.6293 286.471C96.5434 286.171 96.4667 285.883 96.3923 285.585C94.8391 280.127 96.6732 275.708 100.324 271.926C100.524 271.71 100.719 271.506 100.926 271.292Z" fill="#7A8FA6"/>
<path id="eyebrow" d="M70.0356 227.427C70.2649 227.724 70.4943 228.02 70.7236 228.317C73.146 226.867 76.4231 226.518 79.4396 226.154C91.7429 225.086 104.388 225.888 116.201 229.055C116.492 229.137 116.781 229.222 117.067 229.308C130.286 233.173 144.396 237.806 150.246 250.65L152.557 249.062C139.799 239.281 124.682 237.883 110.161 235.369C96.1403 233.078 81.9284 236.233 68.4474 238.285L69.1632 238.729C68.8672 237.988 68.6258 237.119 68.4666 236.282C67.8803 233.383 68.3598 230.113 70.7236 228.317C70.4943 228.02 70.2649 227.724 70.0356 227.427C67.1781 229.472 66.5457 233.377 67.1207 236.52C67.2778 237.455 67.4944 238.347 67.8367 239.271L68.0428 239.758L68.5526 239.715C82.5203 237.936 96.1348 235.178 109.839 237.631C123.92 240.159 139.769 242.556 150.443 250.938L152.755 249.35C146.601 235.445 130.931 230.196 117.933 226.436C117.631 226.345 117.327 226.256 117.02 226.169C104.61 222.853 91.7442 222.478 79.194 224.371C76.0813 224.976 72.8746 225.432 70.0356 227.427ZM70.7236 228.317L70.0356 227.427L70.7236 228.317Z" fill="#7A8FA6"/>
</g>
<g id="Ear organ">
<path id="Vector 6" d="M315.5 334C274 300.5 309 266.5 327 266.5C351.5 266.5 359 292.5 360.5 313.5C362 334.5 359.375 354 348.5 363C337.625 372 335.5 367.5 327 374.5C318.5 381.5 323 386.5 308 386.5C298.513 386.5 288 373 294.5 367" stroke="#7A8FA6" stroke-width="2"/>
<path id="Vector 8" d="M302.376 355.519C302.753 355.471 303.149 355.468 303.562 355.519C307.562 356.019 304.562 366.519 315.062 368.519C321.062 369.662 332 347.981 332 341.5C332 324.692 329 309.5 300 313.5" stroke="#7A8FA6" stroke-width="2"/>
<path id="ear" d="M289.062 325C274.5 269 306.852 252.461 328.562 253C350.272 253.539 370.5 276.645 370.5 307.5C370.5 333.923 371.5 342.5 363 365C352.836 391.904 338.342 396.822 334 413C330.784 424.984 315.938 430.153 302.5 426C289.062 421.847 283 402.481 283 381" stroke="#7A8FA6" stroke-width="4"/>
<path id="Vector 7" d="M297 300C303.5 300 330.562 288.519 322.062 274.019" stroke="#7A8FA6" stroke-width="2"/>
<path id="ear-part" d="M302.062 333.019C307.262 338.619 304.229 343.353 302.062 345.019" stroke="#7A8FA6" stroke-width="2"/>
</g>
<g id="Hair lines">
<path id="hair_line1" d="M86.5 138.5C120 118 180.099 122.229 201 130C240 144.5 210.5 184.5 201 219.5C194.04 245.143 231 246 226.5 290C225.432 300.446 234.659 325.019 239 327.5C246 331.5 272 331.5 279 322.5C274.333 310 276.3 280 287.5 268C298.7 256 307.667 254 315 253.5" stroke="#7A8FA6" stroke-width="2" stroke-linecap="round" stroke-dasharray="8 8"/>
<path id="hair_line2" d="M462 476.499C432.683 469.489 402.125 441.012 389.417 420.514C376.709 400.015 380 335.463 380 308.5C377.2 287.7 367 264.5 348.5 256.5" stroke="#7A8FA6" stroke-width="2" stroke-dasharray="8 8"/>
<path id="coronal_line" d="M317.003 4.0432L323.02 645.052" stroke="#7A8FA6" stroke-dasharray="10 10"/>
</g>
<path id="Yang" d="M406.358 0.318182H407.77L410.594 5.07102H410.713L413.537 0.318182H414.949L411.27 6.30398V10.5H410.037V6.30398L406.358 0.318182ZM417.634 10.679C417.15 10.679 416.71 10.5878 416.316 10.4055C415.922 10.2199 415.608 9.95312 415.376 9.60511C415.144 9.25379 415.028 8.82955 415.028 8.33239C415.028 7.89489 415.115 7.54025 415.287 7.26847C415.459 6.99337 415.69 6.77794 415.978 6.62216C416.266 6.46638 416.585 6.35038 416.933 6.27415C417.284 6.1946 417.637 6.13163 417.991 6.08523C418.455 6.02557 418.832 5.98082 419.12 5.95099C419.412 5.91785 419.624 5.86316 419.756 5.78693C419.892 5.7107 419.96 5.57812 419.96 5.3892V5.34943C419.96 4.8589 419.826 4.47775 419.558 4.20597C419.292 3.93419 418.89 3.7983 418.349 3.7983C417.789 3.7983 417.35 3.92093 417.032 4.16619C416.714 4.41146 416.49 4.6733 416.361 4.9517L415.247 4.55398C415.446 4.08996 415.711 3.72869 416.043 3.47017C416.377 3.20833 416.742 3.02604 417.136 2.9233C417.534 2.81723 417.925 2.7642 418.31 2.7642C418.555 2.7642 418.837 2.79403 419.155 2.85369C419.476 2.91004 419.786 3.0277 420.085 3.20668C420.386 3.38565 420.636 3.65578 420.835 4.01705C421.034 4.37831 421.134 4.86222 421.134 5.46875V10.5H419.96V9.46591H419.901C419.821 9.63163 419.688 9.80895 419.503 9.99787C419.317 10.1868 419.07 10.3475 418.762 10.4801C418.454 10.6127 418.078 10.679 417.634 10.679ZM417.812 9.625C418.277 9.625 418.668 9.53385 418.986 9.35156C419.307 9.16927 419.549 8.93395 419.712 8.6456C419.877 8.35724 419.96 8.05398 419.96 7.7358V6.66193C419.911 6.72159 419.801 6.77628 419.632 6.82599C419.466 6.8724 419.274 6.91383 419.055 6.95028C418.84 6.98343 418.629 7.01326 418.424 7.03977C418.222 7.06297 418.058 7.08286 417.932 7.09943C417.627 7.1392 417.342 7.20384 417.077 7.29332C416.815 7.3795 416.603 7.51042 416.44 7.68608C416.281 7.85843 416.202 8.09375 416.202 8.39205C416.202 8.79972 416.353 9.10795 416.654 9.31676C416.959 9.52225 417.345 9.625 417.812 9.625ZM424.448 5.90625V10.5H423.275V2.86364H424.409V4.05682H424.508C424.687 3.66903 424.959 3.35748 425.323 3.12216C425.688 2.88352 426.159 2.7642 426.735 2.7642C427.252 2.7642 427.705 2.87027 428.093 3.08239C428.48 3.29119 428.782 3.60938 428.997 4.03693C429.213 4.46117 429.32 4.99811 429.32 5.64773V10.5H428.147V5.72727C428.147 5.12737 427.991 4.66004 427.68 4.32528C427.368 3.98722 426.941 3.81818 426.397 3.81818C426.023 3.81818 425.688 3.89938 425.393 4.06179C425.101 4.22419 424.871 4.46117 424.702 4.77273C424.533 5.08428 424.448 5.46212 424.448 5.90625ZM434.547 13.5227C433.98 13.5227 433.493 13.4498 433.085 13.304C432.678 13.1615 432.338 12.9725 432.066 12.7372C431.798 12.5052 431.584 12.2566 431.425 11.9915L432.359 11.3352C432.465 11.4744 432.6 11.6335 432.762 11.8125C432.924 11.9948 433.147 12.1522 433.428 12.2848C433.713 12.4207 434.086 12.4886 434.547 12.4886C435.163 12.4886 435.672 12.3395 436.073 12.0412C436.474 11.7429 436.675 11.2756 436.675 10.6392V9.08807H436.575C436.489 9.22727 436.366 9.39962 436.207 9.60511C436.052 9.80729 435.826 9.98793 435.531 10.147C435.24 10.3028 434.845 10.3807 434.348 10.3807C433.732 10.3807 433.178 10.2348 432.688 9.94318C432.2 9.65152 431.814 9.22727 431.529 8.67045C431.247 8.11364 431.107 7.4375 431.107 6.64205C431.107 5.85985 431.244 5.17874 431.519 4.59872C431.794 4.01539 432.177 3.56463 432.668 3.24645C433.158 2.92495 433.725 2.7642 434.368 2.7642C434.865 2.7642 435.259 2.84706 435.551 3.01278C435.846 3.17519 436.071 3.3608 436.227 3.5696C436.386 3.77509 436.509 3.94413 436.595 4.0767H436.714V2.86364H437.848V10.7188C437.848 11.375 437.699 11.9086 437.401 12.3196C437.106 12.7339 436.708 13.0372 436.207 13.2294C435.71 13.425 435.157 13.5227 434.547 13.5227ZM434.507 9.3267C434.978 9.3267 435.375 9.21899 435.7 9.00355C436.025 8.78812 436.272 8.47822 436.441 8.07386C436.61 7.66951 436.695 7.18561 436.695 6.62216C436.695 6.07197 436.612 5.58641 436.446 5.16548C436.28 4.74455 436.035 4.41477 435.71 4.17614C435.385 3.9375 434.984 3.81818 434.507 3.81818C434.01 3.81818 433.596 3.94413 433.264 4.19602C432.936 4.44792 432.689 4.78598 432.523 5.21023C432.361 5.63447 432.28 6.10511 432.28 6.62216C432.28 7.15246 432.363 7.62145 432.528 8.02912C432.697 8.43348 432.946 8.75166 433.274 8.98366C433.606 9.21236 434.017 9.3267 434.507 9.3267Z" fill="#FF0808"/>
<path id="Yin" d="M197.358 0.318182H198.77L201.594 5.07102H201.713L204.537 0.318182H205.949L202.27 6.30398V10.5H201.037V6.30398L197.358 0.318182ZM207.384 10.5V2.86364H208.558V10.5H207.384ZM207.981 1.59091C207.752 1.59091 207.555 1.51302 207.389 1.35724C207.227 1.20147 207.146 1.0142 207.146 0.795455C207.146 0.576705 207.227 0.389441 207.389 0.233664C207.555 0.0778881 207.752 0 207.981 0C208.21 0 208.405 0.0778881 208.568 0.233664C208.733 0.389441 208.816 0.576705 208.816 0.795455C208.816 1.0142 208.733 1.20147 208.568 1.35724C208.405 1.51302 208.21 1.59091 207.981 1.59091ZM211.88 5.90625V10.5H210.707V2.86364H211.84V4.05682H211.94C212.119 3.66903 212.39 3.35748 212.755 3.12216C213.12 2.88352 213.59 2.7642 214.167 2.7642C214.684 2.7642 215.136 2.87027 215.524 3.08239C215.912 3.29119 216.214 3.60938 216.429 4.03693C216.644 4.46117 216.752 4.99811 216.752 5.64773V10.5H215.579V5.72727C215.579 5.12737 215.423 4.66004 215.112 4.32528C214.8 3.98722 214.372 3.81818 213.829 3.81818C213.454 3.81818 213.12 3.89938 212.825 4.06179C212.533 4.22419 212.303 4.46117 212.134 4.77273C211.964 5.08428 211.88 5.46212 211.88 5.90625Z" fill="#CB6608"/>
<g id="extra-lumbar-point">
<circle id="I-yang" cx="463" cy="230.5" r="4" fill="#34B904"/>
<path id="H-yang" d="M504 216.5C504 218.709 502.209 220.5 500 220.5C497.791 220.5 496 218.709 496 216.5C496 214.291 497.791 212.5 500 212.5C502.209 212.5 504 214.291 504 216.5Z" fill="#34B904"/>
<circle id="H-yin" cx="161" cy="107.5" r="4" fill="#34B904"/>
<path id="I-yin" d="M231 115.5C231 117.709 229.209 119.5 227 119.5C224.791 119.5 223 117.709 223 115.5C223 113.291 224.791 111.5 227 111.5C229.209 111.5 231 113.291 231 115.5Z" fill="#34B904"/>
</g>
<g id="ear-points">
<circle id="extra-ear-yin" cx="279" cy="117.5" r="4" fill="#0845FF"/>
<circle id="extra-ear-yang" cx="367" cy="138.5" r="4" fill="#0845FF"/>
<circle id="ear-yang" cx="441" cy="237.5" r="4" fill="#0845FF"/>
<circle id="ear-yin" cx="166" cy="165.5" r="4" fill="#0845FF"/>
</g>
<g id="basic-yang">
<g id="G3-yang">
<circle id="G1-yang" cx="330" cy="426.5" r="4" fill="#FF0808"/>
<path id="G2-yang" d="M345 432.5C345 434.709 343.209 436.5 341 436.5C338.791 436.5 337 434.709 337 432.5C337 430.291 338.791 428.5 341 428.5C343.209 428.5 345 430.291 345 432.5Z" fill="#FF0808"/>
<path id="G3-yang_2" d="M355 426.5C355 428.709 353.209 430.5 351 430.5C348.791 430.5 347 428.709 347 426.5C347 424.291 348.791 422.5 351 422.5C353.209 422.5 355 424.291 355 426.5Z" fill="#FF0808"/>
</g>
<circle id="F-yang" cx="364" cy="393.5" r="4" fill="#FF0808"/>
<g id="D1-6-yang">
<path id="D6-yang" d="M372 262.5C372 264.709 370.209 266.5 368 266.5C365.791 266.5 364 264.709 364 262.5C364 260.291 365.791 258.5 368 258.5C370.209 258.5 372 260.291 372 262.5Z" fill="#FF0808"/>
<path id="D5-yang" d="M367 255.5C367 257.709 365.209 259.5 363 259.5C360.791 259.5 359 257.709 359 255.5C359 253.291 360.791 251.5 363 251.5C365.209 251.5 367 253.291 367 255.5Z" fill="#FF0808"/>
<circle id="D4-yang" cx="356" cy="249.5" r="4" fill="#FF0808"/>
<path id="D3-yang" d="M352 244.5C352 246.709 350.209 248.5 348 248.5C345.791 248.5 344 246.709 344 244.5C344 242.291 345.791 240.5 348 240.5C350.209 240.5 352 242.291 352 244.5Z" fill="#FF0808"/>
<circle id="D2-yang" cx="339" cy="241.5" r="4" fill="#FF0808"/>
<circle id="D1-yang" cx="330" cy="240.5" r="4" fill="#FF0808"/>
</g>
<circle id="D-yang" cx="409" cy="305.5" r="4" fill="#FF0808"/>
<path id="c---yang" d="M475.082 240.593L489.063 252.709M496.394 259.405L489.063 252.709M490.475 260.892L489.063 252.709M489.063 252.709L497.023 253.334M489.063 252.709L485.437 259.834M489.063 252.709L494.932 248.876" stroke="#FF0808" stroke-width="2"/>
<circle id="C-yang" cx="474" cy="240.5" r="4" fill="#FF0808"/>
<g id="E-yang">
<circle id="E12-yang" cx="532" cy="305.5" r="4" fill="#FF0808"/>
<path id="e---yang" d="M516 298L531.5 306" stroke="#FF0808" stroke-width="2"/>
<circle id="E1-yang" cx="515" cy="297.5" r="4" fill="#FF0808"/>
</g>
<path id="B-yang" d="M515 227.5C515 229.709 513.209 231.5 511 231.5C508.791 231.5 507 229.709 507 227.5C507 225.291 508.791 223.5 511 223.5C513.209 223.5 515 225.291 515 227.5Z" fill="#FF0808"/>
<circle id="A8-yang" cx="524" cy="206.5" r="4" fill="#FF0808"/>
<circle id="A1-yang" cx="534" cy="223.5" r="4" fill="#FF0808"/>
<path id="a---yang" d="M526 208.5L533 222.5" stroke="#FF0808" stroke-width="2"/>
</g>
<g id="basic-yin">
<circle id="G3-yin" cx="237" cy="284.5" r="4" fill="#CB6608"/>
<path id="G2-yin" d="M230.5 284.5C230.5 286.709 228.709 288.5 226.5 288.5C224.291 288.5 222.5 286.709 222.5 284.5C222.5 282.291 224.291 280.5 226.5 280.5C228.709 280.5 230.5 282.291 230.5 284.5Z" fill="#CB6608"/>
<circle id="G1-yin" cx="216" cy="284.5" r="4" fill="#CB6608"/>
<circle id="E1-yin" cx="107" cy="206.5" r="4" fill="#CB6608"/>
<path id="e---yin" d="M75 215.5L90.75 211L106.5 206.5" stroke="#CB6608" stroke-width="2"/>
<circle id="E12-yin" cx="74" cy="215.5" r="4" fill="#CB6608"/>
<circle id="D-yin" cx="227" cy="299.5" r="4" fill="#CB6608"/>
<path id="c---yin" d="M213.919 128.769L196.5 143.77M188.041 152.463L196.5 143.77M187.976 145.722L196.5 143.77M196.5 143.77L194.698 153.527M196.5 143.77L190.533 140.122M196.5 143.77L200.279 151.44" stroke="#CB6608" stroke-width="2"/>
<circle id="C-yin" cx="215.5" cy="127.5" r="4" fill="#CB6608"/>
<circle id="B-yin" cx="154" cy="123.5" r="4" fill="#CB6608"/>
<g id="Group 3">
<circle id="YNSA-A1-yin" cx="106" cy="139.5" r="4" fill="#CB6608"/>
<path id="a---yin" d="M127.5 117L106 139" stroke="#CB6608" stroke-width="2"/>
<circle id="YNSA-A8-yin" cx="128" cy="115.5" r="4" fill="#CB6608"/>
</g>
<g id="D1-6-yin">
<circle id="D6-yin" cx="272.5" cy="319.375" r="3.5" fill="#CB6608"/>
<circle id="D5-yin" cx="272.5" cy="311.5" r="3.5" fill="#CB6608"/>
<circle id="D4-yin" cx="272.5" cy="303.625" r="3.5" fill="#CB6608"/>
<circle id="D3-yin" cx="272.5" cy="295.75" r="3.5" fill="#CB6608"/>
<circle id="D2-yin" cx="272.5" cy="287.875" r="3.5" fill="#CB6608"/>
<circle id="D1-yin" cx="272.5" cy="280" r="3.5" fill="#CB6608"/>
</g>
</g>
<g id="silouette">
<path id="lips" d="M72.4212 461.007C87.7967 455.555 124 463.485 124 463.485M124 463.485C110.076 457.042 99.4932 435.234 62.7329 441.677C62.7329 441.677 54.9354 457.042 72.4212 461.007C58.8341 473.398 69.4166 480.337 69.4166 480.337C96.7083 481.824 113.418 472.902 124 463.485Z" stroke="#7A8FA6" stroke-width="4"/>
<path id="silouette_2" d="M287.457 484.16C286.852 484.003 286.248 483.846 285.643 483.689C284.211 488.285 281.751 492.542 278.903 496.456C267.202 512.099 249.874 522.487 232.072 530.412C230.333 531.177 228.669 531.879 226.901 532.595C197.306 542.418 164.827 545.538 133.435 551.285C121.295 553.396 108.622 554.787 97.0131 551.71C84.9531 549.133 77.9004 537.27 78.9991 525.008C79.3217 514.366 79.5306 503.553 77.112 492.93C75.8764 488.091 74.0949 482.727 69.3836 479.706C69.0518 480.235 68.7199 480.765 68.3881 481.294C72.1948 483.835 73.8616 488.777 74.8913 493.437C76.946 503.649 76.5165 514.332 75.9567 524.866C74.2128 537.612 82.5843 552.52 95.9592 555.349C108.653 558.917 121.698 557.558 134.181 555.575C165.631 550.195 197.584 547.537 228.775 537.228C230.589 536.495 232.298 535.775 234.087 534.988C252.375 526.857 270.21 515.377 281.384 498.142C284.095 493.836 286.345 489.175 287.457 484.16Z" fill="#7A8FA6"/>
<path id="silouette_3" d="M62.1989 440.513C62.733 440.838 63.267 441.162 63.8011 441.487C70.6255 429.891 64.5082 416.678 59.693 406.125C57.3051 402.074 53.0867 402.593 49.9769 402.328C46.716 402.261 43.5029 402.434 40.342 402.451C34.1069 402.476 27.474 402.145 22.8906 398.568C18.8338 395.441 17.5493 389.931 17.6107 384.5C19.5276 352.751 40.9056 325.749 60.2386 300.785C68.1737 291.428 71.4395 278.113 69.3017 266.134C67.6869 254.137 61.5104 243.004 60.9379 232.458C60.8663 210.98 65.1791 189.773 71.5364 169.173L71.5794 169.013C75.2719 153.215 80.5584 137.868 87.803 123.486C125.497 43.7974 222.864 20.0217 305.583 25.4208C350.399 26.7127 394.517 40.0166 431.883 64.8822C481.213 93.8219 522.482 136.137 541.041 190.764C553.334 222.086 553.636 257.035 547.668 290.116C543.04 318.271 529.983 343.757 513.961 367.578C495.863 403.58 482.555 441.123 466.004 477.333C453.982 519.464 458.332 563.236 466.202 605.3C470.436 619.583 477.064 632.69 483.356 645.933C494.315 668.299 505.729 690.291 518.034 711.99C518.566 711.663 519.099 711.337 519.632 711.01C507.557 689.43 496.209 667.286 485.407 644.943C479.213 631.751 472.623 618.443 468.626 604.681C461.015 563.479 457.175 518.635 468.824 478.626C485.54 442.45 499.239 404.521 517.039 369.422C532.985 345.963 546.748 319.439 551.498 290.81C557.658 257.282 557.534 221.566 544.959 189.236C526.591 134.125 483.681 89.8787 434.386 61.0039C396.564 35.6835 351.197 21.9196 305.786 20.5896C222.553 14.9838 122.285 38.9913 83.3373 121.237C75.8891 136.023 70.4956 151.759 66.762 167.892L66.8049 167.732C60.4132 188.589 56.0392 210.438 56.2311 232.458C57.1782 245.443 63.3376 255.497 64.8559 266.819C66.8456 277.94 64.1138 289.413 56.9304 298.142C37.6704 323.591 16.1232 350.718 14.3893 384.5C14.3899 390.325 15.8627 397.022 21.047 400.935C32.8584 409.476 49.1545 401.304 57.476 407.171C62.4987 417.619 68.1974 430.108 62.1989 440.513Z" fill="#7A8FA6"/>
<path id="neck-front" d="M157.268 549.773C157.191 549.546 157.037 549.348 156.828 549.226C156.618 549.105 156.372 549.068 156.14 549.126C155.908 549.184 155.708 549.332 155.58 549.538C155.452 549.744 155.41 549.991 155.449 550.227C155.449 550.227 155.449 550.227 155.449 550.227C155.885 552.808 156.585 555.37 157.358 557.891C160.501 567.877 164.661 577.436 168.768 586.855C183.154 619.772 196.891 654.06 196.103 690.212C196.024 692.768 195.86 695.333 195.605 697.881C195.58 698.125 195.649 698.371 195.801 698.566C195.953 698.76 196.174 698.887 196.418 698.918C196.661 698.949 196.907 698.882 197.103 698.732C197.298 698.582 197.427 698.361 197.465 698.119C197.465 698.119 197.465 698.119 197.465 698.119C197.864 695.542 198.166 692.94 198.377 690.34C201.037 653.469 187.803 617.884 173.345 584.843C169.218 575.379 164.462 566.111 160.163 556.828C159.1 554.483 158.075 552.124 157.268 549.773Z" fill="#7A8FA6"/>
</g>
<g id="sutures">
<path id="Vector 53" d="M83 247.5C85.5 247.5 88.5 245.5 91 247.5C93.5 249.5 95 252 96 254C97 256 99.5 259 101.5 259.5M101.5 259.5C103.5 260 115 265.5 116.5 266.5C118 267.5 125 272.5 126 273.5C126.8 274.3 130.333 276.833 132 278L138 285L141 289.5C140.333 292.167 138.3 298.3 135.5 301.5C132 305.5 134 308.5 132 312C130.4 314.8 126.333 318.167 124.5 319.5C123.5 321.5 120.5 325.8 116.5 327C111.5 328.5 108 329.5 107.5 331.5C107.1 333.1 103.333 338.5 101.5 341L94.5 343.5C94 346 93.3 351.2 94.5 352C96 353 105 357 107.5 357.5C110 358 116.5 359 116.5 361C116.5 363 121.5 373 122 375C122.5 377 127 388 128.5 390C130 392 133 392.5 135.5 394C138 395.5 147 396.5 150 397.5C153 398.5 154.5 397.5 158.5 397.5C162.5 397.5 162.5 397.5 165.5 397.5C168.5 397.5 168.5 394 170.5 394C172.5 394 173.5 390 175 390C176.2 390 178.833 386 180 384L184.5 378C185.167 374.5 187.1 367.1 189.5 365.5C184.5 361 186 364.5 180 357.5C174 350.5 165.5 348.5 165.5 347C165.5 345.5 157 346 156.5 343.5C156.1 341.5 152 338.667 150 337.5L148 327V317.5V312L150 305V297V292L148 285V278L143.5 273.5L141 266.5C139.667 266 136.7 264.9 135.5 264.5C134.3 264.1 132.667 263 132 262.5L124.5 259.5C122.333 261 117.7 263.7 116.5 262.5C115.3 261.3 114 260 113.5 259.5L107.5 254L101.5 259.5Z" stroke="#7A8FA6" stroke-opacity="0.3"/>
<path id="Vector 54" d="M158 344.5C159.333 343.5 163.7 339.8 166.5 339C172.9 339 176.833 338 178 337.5H182.5L187 335.5H195.5C196.333 335.5 198.9 335.5 202.5 335.5C207 335.5 206 333.5 211 333C215 332.6 221.667 331.167 224.5 330.5C226.667 329.833 231.5 328.4 233.5 328C236 327.5 242.5 326 245.5 326C248.5 326 252.5 326 254 326C255.5 326 257 326 263 326C269 326 268.5 326 271 326C273.5 326 273 326 278 326C282 326 286.667 327.333 288.5 328" stroke="#7A8FA6" stroke-opacity="0.3"/>
<path id="Vector 55" d="M190 365C196 361.5 200.5 355.5 204 355C206.8 354.6 215.833 352.5 220 351.5C220.5 351.5 221.8 351.5 223 351.5C224.2 351.5 230.833 351.5 234 351.5H241C241.833 351.5 244 351.5 246 351.5C248.5 351.5 249.5 354.5 253 351.5C255.8 349.1 256.333 344.5 257 343C256.5 339.5 261.1 334.5 269.5 334.5C277.9 334.5 282.5 342.5 282.5 349.5" stroke="#7A8FA6" stroke-opacity="0.3"/>
<path id="Vector 56" d="M185 468C188.5 460 201.5 443.5 194.5 430.5C187.5 417.5 178.5 403 178 398C177.6 394 177.833 389 178 388" stroke="#7A8FA6" stroke-opacity="0.3"/>
<path id="Vector 57" d="M183.5 381.5C190.5 381 195.5 383.5 202 386.5C208.5 389.5 216 390.5 218.5 391C221 391.5 219 392 226 393C233 394 247.5 386.5 251 376C254.5 365.5 258.825 351.585 260.5 346C263.5 336 275 336.5 276.5 346C278 355.5 277.5 370 273.5 384.5C269.5 399 264.5 414.5 262.5 421.5C260.5 428.5 256 446 254 458C252.436 467.384 248.5 491 248.5 498.5C248.5 506 248.5 514 239 519C229.761 523.863 217.465 528.044 214.5 528.5C206.5 529.731 206.5 525 200.5 526.5C194.5 528 193.5 533 185 535C176.5 537 141.5 546.5 130.5 547C119.5 547.5 114.5 547 107.5 547C100.5 547 92 546 92.5 534C93 522 92.5 502.5 92.5 498.5C92.5 495.3 90 489 85.5 486.5" stroke="#7A8FA6" stroke-opacity="0.3"/>
<path id="Vector 58" d="M149 278C149.4 275.2 149.167 272.5 149 271.5L154 269.5L157 267.5V263.5C155 262.833 151.6 261.3 154 260.5C156.4 259.7 161.667 257.167 164 256C164.5 256 165.8 256 167 256C168.5 256 171 252.5 173 252.5C179 252.5 180 251.5 181 249.5C188.5 243 192 238 193.5 238C194.7 238 197 238 198 238H203.5" stroke="#7A8FA6" stroke-opacity="0.3"/>
<path id="Vector 59" d="M203.5 237C203.5 236 202 233.5 203.5 232C204.7 230.8 206 228.167 206.5 227L204.5 225L202 223C202.167 222.667 202.7 221.7 203.5 220.5C204.3 219.3 205.833 217 206.5 216C206.667 214.667 207.1 211.8 207.5 211C207.9 210.2 211 208 212.5 207L209.5 205.5L206.5 204C206.5 203.833 206.5 203.3 206.5 202.5C206.5 201.5 203.5 199 204.5 197C205.5 195 202.5 194.5 206.5 193C209.7 191.8 211.833 191.167 212.5 191V188C211.5 187 209.7 184.8 210.5 184C211.5 183 211 182 212.5 181C214.1 178.2 214.167 175.167 214 174C213.5 172.833 212.8 170.4 214 170C215.2 169.6 217.167 168.167 218 167.5H222L226.5 153.5L227.5 150.5C228.5 149.667 230.7 148 231.5 148C232.5 148 233 146.5 234 148C234.8 149.2 236.667 149.5 237.5 149.5H241C241.5 148.5 242.5 146.4 242.5 146C242.5 145.5 241 144.5 241 143C241 141.5 239 139.5 239 138.5C239 137.5 239.5 136 241 134.5C242.2 133.3 244.167 132.333 245 132C245.5 131.5 246.5 130.2 246.5 129C246.5 127.5 248 126 246.5 124.5C245.3 123.3 243.333 121.667 242.5 121C241.667 120.5 240.5 119.2 242.5 118C244.5 116.8 246 113.5 246.5 112L245 109L246.5 106.5C247 105.333 247.7 102.7 246.5 101.5C245.3 100.3 246 97.6667 246.5 96.5C246.5 96 246.5 94.8 246.5 94C246.5 93.2 245.5 91.3333 245 90.5C245 90 245.5 88.8 247.5 88C250 87 251.5 86 251.5 85C251.5 84.2 250.833 82 250.5 81C250.5 80.1667 250.5 78.3 250.5 77.5C250.5 76.7 251.833 74.8333 252.5 74L253.5 70.5C253.5 69.6667 253.5 67.8 253.5 67C253.5 66 254.5 62.5 254.5 61.5C254.5 60.5 253.5 60 253.5 58.5C253.5 57.3 253.5 55.6667 253.5 55L257.5 52L262 43.5L267 38L276 31.5" stroke="#7A8FA6" stroke-opacity="0.3"/>
<path id="Vector 60" d="M196.5 336C195.5 331 193 330 193 328C193 326 194.5 323.5 193 321.5C191.5 319.5 190 318 189.5 316.5C189.1 315.3 188.333 312.667 188 311.5L185.5 308C185.5 307.667 185.5 306.7 185.5 305.5C185.5 304.3 187.167 301.667 188 300.5L189.5 293.5C189.5 291.5 189.5 287.2 189.5 286C189.5 284.5 186 282.5 189.5 280C194.5 274 196.5 272.5 196.5 271C196.5 269.8 198.833 267.167 200 266C199.5 265.167 198.8 263.2 200 262C201.2 260.8 203.167 258.5 204 257.5L207.5 262L209.5 256C208.833 254.333 207.9 250.9 209.5 250.5C211.1 250.1 213.167 248 214 247L215.5 244.5H221L226 240.5C226.833 241.167 228.7 242.1 229.5 240.5C233.1 236.5 236 234.167 237 233.5L243 231L245.5 227.5H248.5C250 225.5 251 224.5 252 223.5C253 222.5 254.5 219 256 222C260.5 227.5 261 227.5 264 227.5C266.4 227.5 270 226.5 271.5 226L275.5 223.5C275.167 223.333 274.9 223.3 276.5 224.5C278.1 225.7 282.833 225 285 224.5C285.667 225.5 287.1 227.5 287.5 227.5C288 227.5 287.5 227 287.5 229.5C287.5 232 288.5 235 290 235.5C291.5 236 291 235.5 295 235.5C299 235.5 299 236 299.5 237C300 238 296.5 238.5 301 239.5C306.2 240.3 311.5 240.5 313.5 240.5C313.833 241 314.8 242.1 316 242.5C317.5 243 317 244 318 245.5C319 247 319 247 322.5 247C326 247 326 247 327.5 247C329 247 328.5 247.5 330 249C331.2 250.2 332.833 251.167 333.5 251.5" stroke="#7A8FA6" stroke-opacity="0.3"/>
<path id="Vector 61" d="M366 277.5C367 279 367 280 367.5 281C368 282 368 282.5 369 284C370 285.5 370 286.5 371.5 287.5C373 288.5 373 290 374.5 291C376 292 375.5 292.5 376 294C376.5 295.5 375 296.5 376 297.5C377 298.5 377 301 378 302.5C384 302.5 383.5 300 384.5 300C385.5 300 386 300 387.5 300C389 300 389 299.5 390 301C390.8 302.2 391.333 303.5 391.5 304C390.667 304 389.8 304 393 304C396.2 304 397.667 302 398 301C398.5 301 399.7 301.3 400.5 302.5C402.5 305.5 402.5 306 404 306.5C405.5 307 407 306.5 408.5 306.5C410 306.5 410 305.5 411.5 306.5C413 307.5 413 307.5 414.5 309C417.5 311.5 419 310.5 420.5 310.5C426.5 313 426.5 313.5 428.5 313C430.1 312.6 432.5 312.833 433.5 313" stroke="#7A8FA6" stroke-opacity="0.3"/>
<path id="Vector 62" d="M433.5 313V309.5V307L437 305C437.167 305.5 437.7 306.8 438.5 308C439.5 309.5 440.5 308 441.5 308C442.3 308 442.5 306.667 442.5 306V302H444H445.5C445.5 302.167 445.8 302.1 447 300.5C448.2 298.9 448.833 296.833 449 296C448.833 296 448.9 296 450.5 296C452.1 296 453.833 296 454.5 296C454.833 295.5 455.7 294.4 456.5 294C459 294 460.5 294 462 294C463.2 294 463.833 293 464 292.5L468.5 291C469.167 291.5 470.6 292.5 471 292.5C472.6 291.3 473 288.667 473 287.5V285V282V279V277L471 274C469.833 273.333 467.7 271.8 468.5 271C470.5 268.2 472.333 265.833 473 265L471 263C471 262.667 471 261.8 471 261C471 260 473 258 473 257C473 256 471 255.5 473 254.5C474.6 253.7 475.667 252.833 476 252.5C476.5 252.5 477.8 252.5 479 252.5C480.2 252.5 482.167 251.167 483 250.5C483.5 249.833 484.7 248.2 485.5 247C486.3 245.8 487.5 243.5 488 242.5C488.667 242 490.2 240.8 491 240C491.8 239.2 494 237 495 236C495.833 235.167 497.6 233.2 498 232C498.5 230.5 496.5 229.5 501 228.5C508 227.5 509 228.5 512 227.5C520.5 220.5 522.5 220 524 220C528.4 217.6 530.833 215.333 531.5 214.5H538L540 210.5" stroke="#7A8FA6" stroke-opacity="0.3"/>
<path id="Vector 63" d="M368.5 361.5L372.5 359V355.5C373.333 355.167 375.4 354.4 377 354C379 353.5 380 352 381 351C381.8 350.2 385.333 347.333 387 346L388.5 342.5L393.5 338V334.5C394.667 333.833 397.2 332.4 398 332C398.8 331.6 400.333 330.167 401 329.5C400.5 329.333 399.5 328.8 399.5 328C399.5 327 401 325.5 401 324C401 322.8 401 319.833 401 318.5L402 314.5L401 311.5L402 309L403.5 306.5" stroke="#7A8FA6" stroke-opacity="0.3"/>
<path id="Vector 64" d="M325.5 426C328 428 332.5 436 342 431C351.5 426 356 423.5 361.5 419C367 414.5 371 408 374.5 406C378 404 383 398 386 396C389 394 396.5 384.5 399 382.5C401.5 380.5 407.5 373.5 408 372C408.5 370.5 413 364.5 414 363C415 361.5 419 357 420.5 355.5C422 354 423.5 352 425.5 349.5C427.5 347 428 345 429 343.5C430 342 433 339 433.5 337.5C434 336 435.5 334.5 435.5 332.5C435.5 330.5 435.5 328 435.5 326.5C435.5 325 435.5 324.5 435.5 322.5C435.5 320.5 433.5 318 433.5 317C433.5 316.2 433.5 314.667 433.5 314" stroke="#7A8FA6" stroke-opacity="0.3"/>
<path id="Vector 65" d="M225 392.5C227.4 390.1 226 388.5 225 388C225 387.667 225 386.7 225 385.5C225 384.3 225 381.667 225 380.5C225 379.833 225 378.2 225 377C225 375.8 225 373.5 225 372.5L228 370H237C237.667 370.833 239.5 372.5 241.5 372.5C243.5 372.5 248 375.5 250 377" stroke="#7A8FA6" stroke-opacity="0.3"/>
<path id="teeth" d="M92 443.5C91 441.5 91 440 87.5 439.5C84.9761 439.139 84 440.5 83 441.5C82 439.5 76.6875 439.5 75 441C70.5 445 70.5 461.5 72 463.5C73.5 465.5 80 463.5 80 462C83.5 464.5 89.5 464 92 463M92 443.5C93.5 441.5 94.4689 439 98.5 439C103 439 104 441.5 105.5 444C106.5 442 107 440.5 111.5 440.5C116 440.5 118 443.5 119 445.5C120 443.5 124.5 440.5 127.5 440.5C130.5 440.5 134 441 136.5 443.5C137.5 442 140 436.5 144.5 436C149 435.5 151 436.5 155 438C155 436 155.5 433 161 431C165.5 429.364 168.5 430 171.5 431C171.5 429.5 170.5 425.5 175.5 423.5C180.5 421.5 183.5 421.5 186 424C191.025 429.025 195.5 434 195 436.5C194.5 439 189 442 187 443.5C185.4 444.7 180.5 445.5 178.5 444C177.5 447 176.5 448 174.5 449C173.158 449.671 172 449.667 171 449.5C169 449.167 163 453.5 160.5 451.5C158.5 454.5 152.5 456.5 151 455.5C150.5 457 149 458.5 146.5 459C144.049 459.49 140.612 457.694 139 458.5C138 459 135.5 462.5 130.5 462.5C127.459 462.5 123 461 121 459.5C119 461 117.028 464 112.5 464C108 464 106.5 463 104.5 461M92 443.5C90 451 91 458 92 463M104.5 461C102.5 463 101.5 465.5 98.5 465.5C95.5 465.5 93 465 92 463M104.5 461C103.3 455.8 104.333 447.5 105 444M76 464.5C74.5 467.5 78.5 483 83.5 485.5C87.5 487.5 88.5 485 88.5 483.5C88.8333 485 90.1 487.9 92.5 487.5C95.5 487 96 485.5 96 482.5C97.5 485.5 98.5 486.5 101 486.5C103.693 486.5 104.5 483 104.5 481C106.5 483.5 107.5 486.625 112 485.5C117 484.25 117 482.5 117.5 481C120.5 482.5 121.436 483.766 126.5 482.5C132.5 481 133.5 478.333 134.5 477M134.5 477C138.5 478 141 478.5 146.5 477C152 475.5 155.5 471.5 156.5 470C159 471 164 471.5 167.5 470C171 468.5 178 465 178 461M134.5 477C132.1 473 130.5 465.667 130 462.5M178 461C181.5 461 183.5 461.5 186 460C188.5 458.5 190 456.5 191 455C192 453.5 196 447 195 445C194.2 443.4 192 441.5 191 441M178 461C176.5 456 174 452.5 171 450M92.5 464C93 468.833 94.4 479.4 96 483M83 442C81.6667 446.167 79.2 455.9 80 461.5M119 445C119.667 447.833 121.3 455.5 120.5 459.5M137 443.5C138.5 446 139.3 453.7 138.5 458.5M155.5 438.5C156.833 439.333 160.6 443 161 451M171.5 431.5C173.167 432.833 176.9 437.1 178.5 443.5M82 463.5C82.5 469 85.3 479.2 88.5 484M101.5 465C101.5 467 102 474.5 104.5 480.5M114.5 464C114.667 467.167 115.5 474.9 117.5 480.5M151 456C152.333 458.667 155.6 465.6 156 470" stroke="#7A8FA6" stroke-opacity="0.3"/>
<path id="scalp-contour" d="M369 417C411.5 421.5 430 417 455 400C466.673 392.063 472 387.5 480.5 376C489 364.5 492 363.5 504 352.5C516 341.5 523.574 339.571 529.5 328C535.426 316.429 541.907 309.5 545.5 258C549.093 206.5 512.5 140 487 115.5C427.57 58.4007 379.5 35.3919 314.5 31C240.5 26 179 39.66 133 76C87 112.34 79.5 163.5 69 201C69 216.5 60.5 220 69 241.5C77.5 263 86 287.5 77.5 300C70.7 310 63 320.167 60 324V334C60 334 69 340 69 345C69 350 75 354.5 77.5 360C78.1566 361.444 78.9707 367.665 80 371C82.89 380.364 87.6869 393.076 84 397.5C79 403.5 77.5 403.5 70.5 403.5C74 412.5 79.5 419.5 77.5 426C75.9 431.2 75.1667 437.833 75 440.5" stroke="#7A8FA6" stroke-opacity="0.5"/>
</g>
</g>
</svg>
