<svg width="452" height="532" viewBox="0 0 452 532" fill="none" xmlns="http://www.w3.org/2000/svg">
<g id="head_top">
<path id="head_silouette_top" d="M389.013 159.619C353.725 52.4569 290.162 46.0021 225.245 44L224.753 44.5005C159.836 46.5026 96.2732 52.9574 60.9848 160.12C30.4933 252.715 30.4937 315.28 29.51 375.842C28.5265 436.405 93.4436 529 224.753 529L225.245 528.499C356.554 528.499 421.472 435.904 420.488 375.342C419.504 314.779 419.505 252.215 389.013 159.619Z" stroke="#434040" stroke-width="5"/>
<g id="ears_top">
<path id="Vector 36" d="M43.8745 215C27.8746 215 27.4686 229.633 17.8742 286C9.87417 333 -2.16517 343.786 4.37411 358.5C8.37407 367.5 14.874 373.5 27.8746 365.5" stroke="#434040" stroke-width="5"/>
<path id="Vector 37" d="M407.499 215C423.499 215 423.905 229.633 433.499 286C441.499 333 453.539 343.786 446.999 358.5C442.999 367.5 436.5 373.5 423.499 365.5" stroke="#434040" stroke-width="5"/>
</g>
<path id="hairline_top" d="M71.999 147C97.499 124.5 133.194 88.5 225.499 88.5C320.999 88.5 350.999 115 383.999 147" stroke="#434040" stroke-width="2" stroke-dasharray="6 6"/>
<path id="nose_top" d="M181.749 45.9999C204.999 36 204.999 2.5 231.499 2.5C257.999 2.5 267.999 41 284.749 45.9999" stroke="#434040" stroke-width="5"/>
<path id="sagittal_suture" d="M223.999 47C222.499 61.5 224.499 86 223.999 94.5C223.499 103 219.999 123 219.999 127.5C219.999 132 223.999 148.5 223.999 152.5C223.999 155.7 223.999 164.167 223.999 168V175.5C223.999 177.667 223.999 182.9 223.999 186.5C223.999 191 223.999 192 223.999 198C223.999 204 223.999 210.5 223.999 216C223.999 220.4 225.332 233 223.999 239V254.5V294.5V323V338V354V374L219.999 392L223.999 404.5V421L219.999 444.5L223.999 454.5L219.999 469C219.999 472.333 219.999 480 219.999 484C219.999 488 219.999 493 219.999 495C221.332 497 223.999 501.7 223.999 504.5C223.999 507.3 223.999 512.667 223.999 515V525" stroke="#434040" stroke-dasharray="2 2"/>
<path id="coronal_suture" d="M51.499 202.164C57.0955 202.164 72.3587 207.37 78.9727 209.973C85.5867 212.575 89.6569 211.014 94.2359 213.616C98.8148 216.219 106.955 219.342 112.043 219.342C116.113 219.342 131.037 222.813 137.99 224.548C141.382 224.548 148.878 224.548 151.727 224.548C155.289 224.548 158.85 227.671 169.025 229.233C179.201 230.795 178.692 229.233 186.324 229.233C193.955 229.233 203.113 236 207.692 236C212.271 236 226.008 236 229.06 236C232.113 236 239.236 236 243.306 236C246.562 236 254.499 231.489 258.06 229.233H275.867H291.639L301.306 224.548H319.113L332.341 219.342H338.955H357.78L363.885 213.616C364.055 212.402 365.615 209.973 370.499 209.973C375.383 209.973 384.066 206.849 387.797 205.288L399.499 198" stroke="#434040" stroke-dasharray="2 2"/>
</g>
</svg>
