<svg width="485" height="640" viewBox="0 0 485 640" fill="none" xmlns="http://www.w3.org/2000/svg">
<g id="Front">
<g id="head body">
<path id="head_front_view" d="M450.249 247C451.13 234.739 451.087 222.438 450.102 210.215C448.003 184.333 442.224 158.976 436.457 133.642C419.94 47.3638 326.02 6.56369 244.749 9.49989C243.917 9.49996 243.086 9.5 242.254 9.5C240.9 9.5 239.546 9.4999 238.192 9.4997C155.089 7.82024 56.7745 50.5797 41.5864 139.386C37.9742 161.932 36.3401 184.804 36.2396 207.683C36.1873 219.958 36.5792 232.24 37.3675 244.5C36.2469 232.265 35.5375 219.987 35.2897 207.691C34.8308 184.772 35.9644 161.779 39.1597 139.021C52.9028 47.7825 153.819 2.63787 238.192 4.5003C239.546 4.5001 240.9 4.5 242.254 4.5C243.086 4.5 243.917 4.50004 244.749 4.50011C326.948 1.21844 424.064 44.7822 439.025 133.076C444.323 158.536 449.577 184.121 451.05 210.152C451.739 222.44 451.463 234.769 450.249 247Z" fill="#7A8FA6"/>
<path id="head_front_view_2" d="M66.2491 366C68.8051 374.28 71.5376 382.508 74.5926 390.614C88.2244 427.689 110.226 461.104 137.224 489.64C150.561 503.489 162.77 518.998 179.537 527.272C196.34 535.455 215.944 536.129 234.982 536.478C236.441 536.493 237.933 536.5 239.457 536.501C243.888 536.502 248.318 536.506 252.749 536.512C274.391 536.55 296.637 533.716 315.025 522.457C333.49 511.317 347.314 493.744 362.52 477.867C381.624 457.496 397.312 433.862 409.379 408.524C413.079 400.701 416.406 392.692 419.249 384.5C416.723 392.795 413.684 400.94 410.245 408.915C399.017 434.754 383.904 459.033 364.978 480.133C350.188 496.231 336.665 514.249 317.359 526.284C298.084 538.41 274.779 541.473 252.749 541.488C248.318 541.494 243.888 541.498 239.457 541.499C237.917 541.5 236.409 541.493 234.932 541.478C215.686 541.093 195.535 540.482 177.42 531.528C159.347 522.32 147.354 506.344 134.274 492.36C107.476 463.068 86.0592 428.565 73.6979 390.933C70.917 382.703 68.4847 374.372 66.2491 366Z" fill="#7A8FA6"/>
<path id="frontal_hairline" d="M428.749 285.636C412.201 290.652 416.309 242.885 424.479 198.369C429.817 169.28 418.607 137.182 382.841 121.133C347.076 105.084 308.865 121.133 249.388 121.133C189.911 121.133 139.879 108.078 103.123 127.151C66.3675 146.224 63.0872 176.803 69.4929 214.418C77.0891 259.024 75.3649 286.639 57.749 281.123" stroke="#7A8FA6" stroke-width="2" stroke-linecap="round" stroke-linejoin="round" stroke-dasharray="8 8"/>
<g id="mouth">
<path id="Vector 40" d="M200.617 429.341C200.451 430.327 200.285 431.313 200.119 432.299C201.749 432.558 203.378 432.836 205.02 433.111C209.416 433.816 214.048 434.674 218.797 433.857C224.014 432.951 229.191 432.048 234.368 431.997C239.34 431.938 244.295 433.449 249.749 433.579C255.197 433.352 260.101 431.747 265.13 431.705C270.34 431.656 275.564 432.466 280.796 433.273C285.418 433.986 289.952 433.07 294.332 432.28C295.965 431.975 297.591 431.665 299.223 431.375C299.161 431.005 299.099 430.635 299.036 430.265C297.391 430.526 295.754 430.807 294.12 431.079C289.732 431.793 285.294 432.571 281.035 431.822C275.818 430.917 270.535 429.987 265.13 429.935C259.79 429.893 254.642 431.428 249.749 431.516C244.861 431.332 239.765 429.702 234.368 429.643C228.93 429.596 223.6 430.432 218.367 431.238C214.236 431.883 209.896 431.046 205.524 430.249C203.899 429.945 202.264 429.634 200.617 429.341Z" fill="#7A8FA6"/>
<path id="Vector 14" d="M249.743 452.558C249.747 452.183 249.751 451.808 249.755 451.433C253.507 451.345 257.245 451.04 260.943 450.507C275.486 448.35 290.8 442.689 298.583 430.29C298.878 429.808 299.159 429.317 299.426 428.818L300.362 430.974C299.823 430.83 299.283 430.686 298.743 430.541L298.863 430.568C286.805 427.48 277.955 418.603 266.749 418.452C261.14 417.982 257.168 424.267 249.749 424.442C242.335 424.224 238.44 417.907 232.749 418.318C221.477 418.383 212.442 427.248 200.566 430.183L200.654 430.164C200.113 430.304 199.572 430.444 199.032 430.584L199.716 429.008C207.059 442.667 223.397 448.748 238.53 450.722C242.244 451.196 245.992 451.428 249.743 451.433C249.747 451.808 249.751 452.183 249.755 452.558C245.958 452.637 242.154 452.483 238.371 452.079C222.986 450.356 205.988 444.634 197.782 430.041L197.136 428.81L198.466 428.465C199.005 428.317 199.544 428.169 200.082 428.022L200.171 428.002C210.854 425.348 220.069 416.023 232.749 415.682C239.939 415.452 244.431 421.935 249.749 421.65C255.062 421.892 259.478 415.376 266.749 415.548C279.495 415.803 288.895 425.116 299.397 427.617L299.516 427.644C300.056 427.787 300.596 427.931 301.136 428.075L302.963 428.563L302.072 430.231C301.777 430.783 301.467 431.325 301.14 431.858C292.435 445.583 276.055 450.865 261.153 452.294C257.352 452.639 253.54 452.72 249.743 452.558ZM249.755 451.433L249.743 452.558H249.755L249.743 451.433H249.755Z" fill="#7A8FA6"/>
<path id="Vector 22" d="M239.328 490.56C239.609 491.52 239.889 492.48 240.17 493.44C240.678 493.275 241.195 493.112 241.708 492.955C250.878 490.242 260.989 488.311 270.031 491.833C270.523 492.035 271.006 492.255 271.481 492.494C271.66 492.165 271.838 491.835 272.017 491.506C271.531 491.224 271.034 490.962 270.527 490.72C261.162 486.453 250.54 487.908 240.94 490.152C240.402 490.283 239.86 490.421 239.328 490.56Z" fill="#7A8FA6"/>
</g>
<g id="neck_front">
<path id="Vector 30" d="M112.179 472.884C112.131 472.649 112.002 472.434 111.809 472.287C111.615 472.141 111.374 472.075 111.137 472.105C110.9 472.135 110.683 472.257 110.531 472.447C110.379 472.636 110.308 472.877 110.319 473.116C110.319 473.116 110.319 473.116 110.319 473.116C110.427 475.656 110.357 478.459 110.213 481.058C109.578 491.74 108.134 502.375 106.798 513.063C101.584 550.27 95.0386 587.798 82.6899 623.304C81.7684 625.681 80.6352 628.321 79.4373 630.531C79.32 630.747 79.2883 631 79.3532 631.238C79.418 631.476 79.5734 631.678 79.7859 631.801C79.9983 631.924 80.2513 631.958 80.4898 631.895C80.7284 631.833 80.9324 631.678 81.0607 631.469C81.0607 631.469 81.0607 631.469 81.0607 631.469C82.4445 629.214 83.7286 626.56 84.7919 624.181C99.0465 588.741 106.481 551.3 111.758 513.696C113.108 502.893 113.912 492.003 113.212 481.032C113.023 478.365 112.714 475.484 112.179 472.884Z" fill="#7A8FA6"/>
<path id="Vector 31" d="M374.17 477.177C374.196 476.939 374.14 476.695 374.001 476.496C373.862 476.297 373.654 476.16 373.419 476.115C373.184 476.07 372.94 476.12 372.738 476.253C372.535 476.386 372.392 476.592 372.328 476.823C372.328 476.823 372.328 476.823 372.328 476.823C371.628 479.379 371.292 482.148 371.123 484.777C370.555 495.545 372.13 506.021 374.359 516.355C382.745 552.229 395.701 587.21 415.883 618.157C417.354 620.325 418.917 622.506 420.491 624.551C420.996 624.184 421.502 623.816 422.007 623.449C420.569 621.354 419.14 619.131 417.798 616.925C399.44 585.489 387.487 550.559 379.242 515.279C377.052 505.131 374.882 495.061 374.123 484.778C373.958 482.266 373.913 479.626 374.17 477.177Z" fill="#7A8FA6"/>
</g>
<g id="ear-right">
<path id="Vector 43" d="M49.249 315.5C52.249 301.5 47.249 266.818 35.249 263C24.249 259.5 9.24902 262.5 14.249 300" stroke="#7A8FA6"/>
<path id="Vector 44" d="M40.249 287.5C28.249 293.5 22.249 308.5 29.749 322C35.749 332.8 44.0824 347.667 46.249 350.5C47.249 347.667 50.949 342.7 57.749 345.5C57.749 340.5 55.749 338 57.749 335.5" stroke="#7A8FA6"/>
<path id="Vector 45" d="M42.749 272C32.249 275.5 23.249 276 17.749 269" stroke="#7A8FA6"/>
</g>
<g id="ear-left">
<path id="ear-contour" d="M428.896 282.297C427.907 282.143 426.918 281.989 425.93 281.834C426.577 277.648 427.447 273.757 428.784 269.75C432.386 255.511 448.422 241.376 463.872 248.745C478.54 254.965 485.855 271.664 484.679 286.64C484.133 300.95 479.732 316.347 469.775 326.548L469.904 326.072C469.966 342.142 461.316 356.109 453.17 368.98C447.931 376.703 446.087 388.643 435.179 391.717C431.483 391.753 427.377 390.531 424.955 387.417C422.246 383.991 421.693 379.579 421.686 375.516C422.061 375.519 422.436 375.521 422.811 375.524C422.837 379.467 423.46 383.641 425.899 386.653C428.062 389.383 431.678 390.465 435.17 390.414C444.12 387.995 446.771 376.183 451.878 368.152C459.925 355.245 468.221 341.448 468.017 326.06L468.018 325.8L468.146 325.584C478.319 314.712 481.875 300.873 482.463 286.492C483.495 272.195 476.288 256.62 462.915 251.117C449.016 244.729 435.113 256.987 431.542 270.682C430.299 274.501 429.491 278.247 428.896 282.297Z" fill="#7A8FA6"/>
<path id="Vector 43_2" d="M440.231 319.47C439.904 319.534 439.577 319.598 439.25 319.662C438.906 317.866 438.726 316.071 438.615 314.263C438.791 297.815 438.405 277.877 452.413 266.748C456.046 265.487 460.267 265.065 463.86 266.826C467.476 268.564 469.677 272.192 470.888 275.814C473.269 283.233 473.041 291.075 472.454 298.701C472.299 300.525 472.115 302.244 471.886 304.089C471.762 304.073 471.638 304.058 471.514 304.043C471.732 302.202 471.905 300.487 472.049 298.668C472.593 291.069 472.758 283.248 470.377 275.988C469.17 272.441 467.015 268.986 463.596 267.372C460.202 265.73 456.162 266.135 452.635 267.384C439.526 277.854 439.556 298.036 439.582 314.202C439.701 315.979 439.89 317.739 440.231 319.47Z" fill="#7A8FA6"/>
<path id="Vector 44_2" d="M447.718 292.004C447.878 291.712 448.038 291.42 448.199 291.127C449.663 291.935 451.036 292.904 452.292 294.004C461.339 301.803 463.449 315.881 457.88 326.235C452.56 336.658 445.107 346.077 442.55 357.558L442.557 357.5C442.553 357.672 442.555 357.813 442.487 358.006C442.461 358.071 442.424 358.136 442.362 358.192C442.295 358.259 442.164 358.301 442.077 358.291C441.916 358.277 441.83 358.21 441.758 358.163C441.483 357.954 441.321 357.746 441.127 357.525C440.767 357.1 440.425 356.666 440.071 356.245C439.364 355.4 438.624 354.595 437.786 353.905C436.165 352.5 433.859 351.731 431.884 352.701L431.574 352.841L431.573 352.5C431.568 350.705 431.86 348.922 432.174 347.184C432.46 345.604 432.644 343.889 431.642 342.611C431.743 342.537 431.844 342.463 431.945 342.389C433.052 343.781 432.851 345.683 432.575 347.251C432.27 349.001 431.998 350.742 432.014 352.5L431.703 352.299C436.393 349.873 440.557 356.491 442.032 357.5L442.039 357.442C444.558 345.803 452.013 336.263 457.213 325.897C462.575 315.771 460.392 302.163 451.656 294.735C450.445 293.687 449.124 292.768 447.718 292.004Z" fill="#7A8FA6"/>
<path id="Vector 45_2" d="M445.504 276.536C445.618 276.222 445.733 275.909 445.847 275.596C446.237 275.744 446.618 275.885 447.011 276.025C453.709 278.484 462.546 279.997 467.58 273.92C467.852 273.608 468.104 273.293 468.352 272.957C468.453 273.029 468.555 273.102 468.656 273.175C468.411 273.526 468.161 273.855 467.889 274.183C462.835 280.623 453.519 279.272 446.697 276.941C446.294 276.809 445.904 276.676 445.504 276.536Z" fill="#7A8FA6"/>
</g>
<g id="nose-bogy">
<path id="nose-l" d="M261.249 289C261.349 291.129 261.453 293.262 261.567 295.391C262.863 314.321 263.298 334.433 272.561 350.636C273.771 352.57 275.167 354.369 276.776 355.932C281.349 360.944 284.209 367.426 282.806 374.413C282.021 377.963 278.586 380.587 275.312 381.114C271.991 381.77 268.747 381.383 265.618 380.758L265.973 380.736C261.736 381.828 257.465 382.499 253.158 382.918C251.028 383.097 248.866 383.267 246.749 383C248.875 383.067 250.99 382.709 253.082 382.353C257.297 381.582 261.507 380.588 265.525 379.264L265.88 379.242C271.701 380.145 279.306 379.559 280.373 373.805C281.374 368.398 278.551 362.044 274.722 358.068C272.892 356.326 271.337 354.335 270.018 352.228C260.067 334.625 260.739 314.399 260.997 295.397C261.063 293.264 261.149 291.129 261.249 289Z" fill="#7A8FA6"/>
<path id="nose-r" d="M231.249 289.5C231.149 291.628 231.045 293.76 230.931 295.887C229.636 314.808 229.199 334.904 219.955 351.107C218.741 353.052 217.339 354.861 215.723 356.432C211.15 361.444 208.29 367.927 209.693 374.913C210.478 378.463 213.912 381.086 217.187 381.613C220.507 382.269 223.75 381.881 226.879 381.256L226.526 381.234C230.775 382.31 235.048 382.793 239.343 383.073C241.478 383.185 243.636 383.275 245.749 383C243.625 383.075 241.503 382.795 239.4 382.506C235.188 381.874 230.948 381.058 226.972 379.766L226.619 379.744C220.797 380.647 213.192 380.06 212.125 374.305C211.123 368.898 213.947 362.544 217.776 358.568C219.615 356.817 221.177 354.815 222.499 352.696C232.429 335.097 231.76 314.886 231.501 295.893C231.435 293.762 231.349 291.628 231.249 289.5Z" fill="#7A8FA6"/>
</g>
<path id="ear-contour_2" d="M56.3596 278.406C57.348 278.255 58.3365 278.103 59.3249 277.951C58.6471 273.682 57.7406 269.723 56.337 265.633C52.5895 251.341 36.3057 237.462 20.9323 244.769C6.2766 250.92 -1.10181 267.563 0.13333 282.571C0.718969 296.897 5.22983 312.327 15.2698 322.529L15.1363 322.045C16.1388 339.453 27.7091 352.812 31.594 368.792C32.9328 373.428 34.3996 378.126 37.1773 382.252C39.787 386.774 45.6897 388.141 50.3321 387.799C54.8119 387.941 58.9434 384.86 60.7877 380.992C62.7351 377.155 63.2834 372.852 63.2691 368.682C62.8941 368.683 62.5191 368.684 62.1441 368.685C62.1315 372.739 61.5464 376.882 59.7063 380.43C57.9308 384.016 54.3299 386.622 50.3362 386.486C39.6445 388.421 35.3714 377.136 33.0696 368.384C29.1936 352.153 17.7392 338.279 17.0422 322.039L17.0404 321.776L16.9087 321.556C6.64261 310.675 2.99513 296.827 2.36182 282.429C1.27393 268.113 8.52619 252.6 21.8999 247.149C35.7612 240.808 49.879 252.848 53.5866 266.572C54.8916 270.468 55.7354 274.277 56.3596 278.406Z" fill="#7A8FA6"/>
<g id="eye-r">
<path id="Vector 47" d="M196.501 284.003C196.619 283.926 196.713 283.81 196.756 283.673C196.798 283.535 196.788 283.388 196.725 283.262C196.661 283.136 196.55 283.039 196.415 282.991C196.279 282.943 196.131 282.948 195.997 282.997C195.997 282.997 195.997 282.997 195.997 282.997C194.984 283.355 193.929 283.678 192.873 284.006C188.675 285.291 184.466 286.54 180.278 287.713C175.338 289.066 170.245 290.207 165.313 290.094C155.389 289.493 145.266 286.977 135.539 284.119C134.513 283.789 133.397 283.44 132.538 283.018C132.41 282.947 132.259 282.926 132.116 282.963C131.973 283 131.851 283.09 131.776 283.216C131.7 283.342 131.678 283.492 131.713 283.635C131.747 283.779 131.837 283.902 131.96 283.982C131.96 283.982 131.96 283.982 131.96 283.982C133.017 284.605 134.039 284.983 135.082 285.407C144.762 288.995 154.65 292.002 165.185 292.906C170.709 293.152 175.973 291.993 181.083 290.603C185.406 289.392 189.588 287.727 193.558 285.671C194.561 285.147 195.532 284.617 196.501 284.003Z" fill="#7A8FA6"/>
<path id="Vector 48" d="M151.249 267C162.749 264 169.749 262.5 181.249 267C189.249 278.5 181.749 287.5 177.749 289.5C172.749 292 164.749 292 159.249 291C154.33 290.106 144.749 278.5 151.249 267Z" stroke="#7A8FA6" stroke-width="2" stroke-linecap="round"/>
<path id="Vector 49" d="M198.176 269.819C198.391 269.973 198.659 270.035 198.92 269.989C199.181 269.942 199.415 269.793 199.568 269.573C199.722 269.354 199.783 269.084 199.736 268.823C199.69 268.561 199.541 268.331 199.322 268.181C199.322 268.181 199.322 268.181 199.322 268.181C198.46 267.58 197.527 266.837 196.591 266.155C179.351 252.761 155.529 255.692 136.811 263.335C135.758 263.751 134.689 264.191 133.605 264.654C133.514 264.693 133.442 264.766 133.405 264.858C133.368 264.95 133.368 265.052 133.406 265.143C133.444 265.234 133.516 265.306 133.608 265.344C133.699 265.382 133.802 265.383 133.893 265.346C133.893 265.346 133.893 265.346 133.893 265.346C134.979 264.905 136.049 264.487 137.103 264.093C155.891 256.814 179.182 254.546 195.431 267.707C196.339 268.393 197.207 269.115 198.176 269.819Z" fill="#7A8FA6"/>
<path id="Ellipse 5" d="M174.23 277.409C174.634 281.748 172.116 285.319 168.605 285.384C165.095 285.449 161.922 281.984 161.517 277.645C161.113 273.306 163.631 269.735 167.142 269.67C170.652 269.605 173.826 273.07 174.23 277.409Z" fill="#7A8FA6"/>
<path id="Vector 46" d="M198.078 280.437C198.323 280.751 198.681 280.952 199.077 280.996C199.472 281.04 199.872 280.923 200.186 280.671C200.5 280.42 200.703 280.056 200.747 279.66C200.791 279.265 200.672 278.871 200.42 278.563C200.42 278.563 200.42 278.563 200.42 278.563C199.535 277.481 198.6 276.433 197.606 275.411C179.534 254.94 147.998 261.691 129.238 276.591C128.142 277.373 127.034 278.192 125.912 279.049C125.795 279.139 125.718 279.272 125.698 279.419C125.677 279.566 125.715 279.715 125.803 279.833C125.892 279.951 126.023 280.029 126.17 280.051C126.317 280.074 126.466 280.038 126.586 279.951C127.716 279.126 128.832 278.34 129.935 277.591C149.077 263.214 179.064 257.858 195.501 277.414C196.414 278.397 197.27 279.403 198.078 280.437Z" fill="#7A8FA6"/>
<g id="eye-r_2">
<path id="Vector 47_2" d="M294.497 287.536C294.379 287.459 294.285 287.343 294.242 287.206C294.2 287.068 294.21 286.922 294.274 286.795C294.337 286.669 294.448 286.572 294.583 286.524C294.719 286.476 294.867 286.481 295.001 286.53C295.001 286.53 295.001 286.53 295.001 286.53C296.014 286.888 297.069 287.211 298.125 287.54C302.323 288.824 306.532 290.073 310.72 291.247C315.66 292.599 320.753 293.74 325.685 293.628C335.609 293.026 345.732 290.51 355.459 287.652C356.486 287.322 357.601 286.974 358.46 286.551C358.588 286.48 358.739 286.459 358.882 286.496C359.025 286.533 359.147 286.624 359.222 286.749C359.298 286.875 359.32 287.025 359.285 287.169C359.251 287.312 359.161 287.435 359.038 287.516C359.038 287.516 359.038 287.516 359.038 287.516C357.981 288.138 356.959 288.517 355.916 288.94C346.236 292.529 336.348 295.535 325.813 296.439C320.289 296.685 315.025 295.526 309.915 294.136C305.593 292.925 301.41 291.26 297.44 289.204C296.437 288.681 295.466 288.15 294.497 287.536Z" fill="#7A8FA6"/>
<path id="Vector 48_2" d="M339.749 270.533C328.249 267.533 321.249 266.033 309.749 270.533C301.749 282.033 309.249 291.033 313.249 293.033C318.249 295.533 326.249 295.533 331.749 294.533C336.668 293.639 346.249 282.033 339.749 270.533Z" stroke="#7A8FA6" stroke-width="2" stroke-linecap="round"/>
<path id="Vector 49_2" d="M292.822 273.352C292.607 273.507 292.339 273.568 292.078 273.522C291.817 273.476 291.583 273.326 291.43 273.107C291.276 272.887 291.216 272.617 291.262 272.356C291.308 272.094 291.457 271.864 291.676 271.714C291.676 271.714 291.676 271.714 291.676 271.714C292.538 271.113 293.471 270.37 294.407 269.689C311.647 256.294 335.469 259.225 354.187 266.868C355.24 267.285 356.309 267.724 357.393 268.187C357.484 268.226 357.556 268.299 357.593 268.391C357.63 268.483 357.63 268.585 357.592 268.676C357.554 268.767 357.482 268.839 357.39 268.877C357.299 268.916 357.196 268.916 357.105 268.879C357.105 268.879 357.105 268.879 357.105 268.879C356.019 268.438 354.949 268.021 353.895 267.626C335.107 260.347 311.816 258.079 295.567 271.241C294.659 271.927 293.791 272.649 292.822 273.352Z" fill="#7A8FA6"/>
<path id="Ellipse 5_2" d="M316.768 280.942C316.364 285.281 318.882 288.852 322.393 288.917C325.903 288.982 329.076 285.517 329.481 281.178C329.885 276.839 327.367 273.268 323.856 273.203C320.346 273.138 317.172 276.603 316.768 280.942Z" fill="#7A8FA6"/>
<path id="Vector 46_2" d="M292.92 283.97C292.675 284.284 292.317 284.486 291.921 284.529C291.526 284.573 291.126 284.456 290.812 284.205C290.498 283.953 290.295 283.589 290.252 283.194C290.208 282.798 290.326 282.404 290.578 282.096C290.578 282.096 290.578 282.096 290.578 282.096C291.464 281.014 292.398 279.966 293.392 278.944C311.464 258.473 343 265.224 361.76 280.124C362.856 280.906 363.964 281.726 365.086 282.583C365.203 282.672 365.28 282.806 365.3 282.952C365.321 283.099 365.283 283.248 365.195 283.366C365.106 283.484 364.975 283.563 364.828 283.585C364.681 283.607 364.532 283.571 364.412 283.484C363.282 282.659 362.166 281.873 361.063 281.124C341.921 266.747 311.934 261.391 295.497 280.948C294.584 281.93 293.728 282.936 292.92 283.97Z" fill="#7A8FA6"/>
</g>
</g>
<g id="eye_brow">
<mask id="path-29-inside-1_9_108" fill="white">
<path d="M102.345 250.529C112.015 243.956 138.928 233 157.822 233C180.216 233 195.485 237.93 205.664 241.765C212.281 246.695 204.646 250.529 196.503 247.79C188.359 245.051 171.564 241.765 157.822 241.765C144.08 241.765 130.847 244.503 118.632 247.79C112.706 249.384 92.6746 257.103 102.345 250.529Z"/>
</mask>
<path d="M206.224 241.013C206.022 240.879 205.776 240.821 205.535 240.859C205.293 240.896 205.077 241.026 204.933 241.22C204.788 241.414 204.726 241.658 204.759 241.9C204.792 242.142 204.918 242.361 205.104 242.516C205.104 242.516 205.104 242.516 205.104 242.516C206.48 243.592 207.451 245.273 206.809 245.849C206.226 246.678 204.363 247.166 202.73 247.175C200.827 247.208 198.87 246.811 197.065 246.12C184.421 241.725 171.363 239.465 157.951 239.265C157.908 239.265 157.865 239.265 157.822 239.265C144.22 239.26 130.871 241.93 118.004 245.458C114.056 246.606 110.492 247.924 106.806 249.1C104.983 249.683 103.123 250.272 101.417 250.655C101.013 250.745 100.559 250.819 100.379 250.825C100.347 250.828 100.322 250.82 100.444 250.837C100.515 250.853 100.558 250.846 100.813 250.947C101.053 251.068 101.369 251.175 101.769 251.799C101.94 252.086 102.037 252.433 102.054 252.724C102.068 253.057 102.04 253.147 102.009 253.305C101.946 253.579 101.851 253.74 101.819 253.794C101.751 253.906 101.737 253.907 101.76 253.883C102.032 253.574 102.878 252.936 103.63 252.42C119.677 242.733 138.898 235.66 157.822 234.704C170.197 234.53 182.596 235.915 194.553 239.214C198.186 240.208 201.776 241.373 205.334 242.642C205.566 242.724 205.822 242.715 206.047 242.612C206.272 242.509 206.447 242.323 206.534 242.092C206.62 241.862 206.612 241.606 206.511 241.38C206.41 241.155 206.224 240.978 205.995 240.887C205.995 240.887 205.995 240.887 205.995 240.887C202.457 239.477 198.854 238.165 195.192 237.028C183.138 233.253 170.474 231.446 157.822 231.296C137.576 231.884 118.551 238.453 101.06 248.638C100.161 249.265 99.3857 249.723 98.3432 250.787C98.2071 250.935 98.007 251.173 97.8424 251.452C97.7541 251.599 97.5883 251.912 97.5047 252.288C97.4828 252.385 97.4648 252.489 97.4532 252.601C97.4474 252.658 97.4434 252.712 97.4411 252.777C97.4382 252.86 97.4393 252.946 97.4453 253.036C97.4669 253.392 97.5818 253.797 97.7834 254.137C98.6831 255.432 99.4741 255.308 99.7263 255.406C99.8996 255.434 100.075 255.447 100.198 255.451C100.309 255.455 100.415 255.455 100.519 255.452C101.313 255.42 101.83 255.308 102.372 255.203C104.473 254.756 106.33 254.177 108.227 253.596C111.971 252.445 115.726 251.114 119.259 250.122C131.952 246.756 144.865 244.258 157.822 244.265C157.862 244.265 157.903 244.265 157.944 244.265C170.614 244.438 183.662 246.194 195.941 249.46C198.194 250.129 200.562 250.418 202.935 250.168C204.983 249.864 207.362 249.531 208.942 247.091C209.711 245.785 209.258 244.084 208.583 243.203C207.903 242.238 207.067 241.584 206.224 241.013Z" fill="#7A8FA6" mask="url(#path-29-inside-1_9_108)"/>
</g>
<g id="eye_brow_2">
<mask id="path-31-inside-2_9_108" fill="white">
<path d="M384.582 250.695C374.912 244.121 347.998 233.166 329.105 233.166C306.711 233.165 291.442 238.096 281.263 241.93C274.646 246.86 282.281 250.695 290.424 247.956C298.567 245.217 315.363 241.93 329.105 241.93C342.847 241.93 356.08 244.669 368.295 247.956C374.22 249.55 394.252 257.268 384.582 250.695Z"/>
</mask>
<path d="M280.702 241.178C280.904 241.044 281.15 240.986 281.392 241.024C281.633 241.062 281.85 241.191 281.994 241.385C282.139 241.579 282.201 241.823 282.168 242.065C282.135 242.307 282.009 242.527 281.823 242.682C281.823 242.682 281.823 242.682 281.823 242.682C280.446 243.757 279.476 245.438 280.118 246.014C280.701 246.844 282.564 247.332 284.197 247.341C286.1 247.373 288.057 246.977 289.862 246.285C302.506 241.891 315.564 239.631 328.976 239.43C329.019 239.43 329.062 239.43 329.105 239.43C342.707 239.426 356.056 242.095 368.923 245.624C372.871 246.771 376.435 248.089 380.121 249.265C381.943 249.848 383.804 250.438 385.51 250.82C385.914 250.91 386.368 250.984 386.548 250.991C386.58 250.994 386.605 250.986 386.483 251.003C386.412 251.019 386.369 251.012 386.114 251.113C385.874 251.234 385.557 251.34 385.158 251.965C384.987 252.252 384.89 252.598 384.873 252.889C384.858 253.222 384.887 253.312 384.918 253.471C384.981 253.745 385.076 253.906 385.107 253.96C385.176 254.072 385.19 254.073 385.167 254.049C384.895 253.739 384.049 253.101 383.297 252.585C367.25 242.898 348.029 235.825 329.105 234.869C316.73 234.695 304.331 236.081 292.374 239.38C288.741 240.374 285.151 241.539 281.593 242.807C281.361 242.89 281.105 242.88 280.88 242.778C280.655 242.675 280.48 242.488 280.393 242.258C280.306 242.027 280.315 241.771 280.416 241.546C280.517 241.32 280.703 241.144 280.932 241.053C280.932 241.053 280.932 241.053 280.932 241.053C284.47 239.643 288.072 238.331 291.734 237.194C303.789 233.419 316.453 231.612 329.105 231.462C349.351 232.049 368.376 238.619 385.867 248.804C386.766 249.43 387.541 249.889 388.584 250.952C388.72 251.101 388.92 251.338 389.084 251.617C389.173 251.765 389.339 252.077 389.422 252.453C389.444 252.55 389.462 252.654 389.474 252.766C389.479 252.823 389.483 252.877 389.486 252.942C389.489 253.025 389.488 253.112 389.482 253.201C389.46 253.558 389.345 253.963 389.143 254.302C388.244 255.598 387.453 255.473 387.201 255.572C387.027 255.6 386.852 255.612 386.729 255.617C386.618 255.621 386.512 255.621 386.408 255.618C385.614 255.586 385.097 255.474 384.555 255.369C382.454 254.921 380.596 254.342 378.699 253.762C374.956 252.61 371.201 251.279 367.668 250.288C354.975 246.921 342.062 244.424 329.105 244.43C329.064 244.43 329.024 244.43 328.983 244.43C316.313 244.603 303.265 246.359 290.986 249.626C288.733 250.294 286.364 250.583 283.991 250.333C281.944 250.03 279.565 249.696 277.985 247.257C277.215 245.951 277.669 244.249 278.344 243.368C279.024 242.403 279.86 241.75 280.702 241.178Z" fill="#7A8FA6" mask="url(#path-31-inside-2_9_108)"/>
</g>
</g>
<g id="basic-yin-points">
<g id="Group 5">
<circle id="E1-yin" cx="335.749" cy="213" r="4" fill="#CB6608"/>
<path id="e---yin" d="M336.249 213L285.749 228.5" stroke="#CB6608" stroke-width="2"/>
<circle id="E12-yin" cx="285.749" cy="228" r="4" fill="#CB6608"/>
</g>
<g id="Group 4">
<circle id="E12-yin_2" cx="204.749" cy="228" r="4" fill="#CB6608"/>
<path id="e---yin_2" d="M155.249 212.5L205.749 228" stroke="#CB6608" stroke-width="2"/>
<circle id="E1-yin_2" cx="154.749" cy="212" r="4" fill="#CB6608"/>
</g>
<circle id="D-yin" cx="415.749" cy="256" r="4" fill="#CB6608"/>
<circle id="D-yin_2" cx="72.749" cy="260" r="4" fill="#CB6608"/>
<g id="Group 6">
<path id="c---yin" d="M98.2799 126.442L107.376 142.551M112.292 151.259L107.376 142.551M106.218 150.67L107.376 142.551M107.376 142.551L114.925 145.753M107.376 142.551L101.828 147.98M107.376 142.551L114.455 140.851" stroke="#CB6608" stroke-width="2"/>
<circle id="C-yin" cx="95.749" cy="123" r="4" fill="#CB6608"/>
</g>
<g id="Group 7">
<path id="c---yin_2" d="M394.857 126.442L385.761 142.551M380.845 151.259L385.761 142.551M386.919 150.67L385.761 142.551M385.761 142.551L378.211 145.753M385.761 142.551L391.309 147.98M385.761 142.551L378.682 140.851" stroke="#CB6608" stroke-width="2"/>
<circle id="C-yin_2" cx="396.749" cy="123" r="4" fill="#CB6608"/>
</g>
<circle id="B-yin" cx="314.749" cy="119" r="4" fill="#CB6608"/>
<circle id="B-yin_2" cx="187.749" cy="119" r="4" fill="#CB6608"/>
<g id="Group 8">
<circle id="A8-yin" cx="225.749" cy="108" r="4" fill="#CB6608"/>
<line id="a---yin" x1="225.749" y1="109" x2="225.749" y2="131" stroke="#CB6608" stroke-width="2"/>
<circle id="A1-yin" cx="225.749" cy="131" r="4" fill="#CB6608"/>
</g>
<g id="Group 9">
<circle id="A8-yin_2" cx="273.749" cy="108" r="4" fill="#CB6608"/>
<line id="a---yin_2" x1="273.749" y1="108" x2="273.749" y2="130" stroke="#CB6608" stroke-width="2"/>
<circle id="A1-yin_2" cx="273.749" cy="131" r="4" fill="#CB6608"/>
</g>
</g>
<g id="sensory points">
<circle id="Sensory-ear" cx="4" cy="4" r="4" transform="matrix(-1 0 0 1 374.749 174)" fill="#CB08A1"/>
<circle id="Sensory-mouth" cx="4" cy="4" r="4" transform="matrix(-1 0 0 1 274.749 197)" fill="#CB08A1"/>
<circle id="Sensory-nose" cx="4" cy="4" r="4" transform="matrix(-1 0 0 1 274.749 178)" fill="#CB08A1"/>
<circle id="Sensory-eye" cx="4" cy="4" r="4" transform="matrix(-1 0 0 1 274.749 159)" fill="#CB08A1"/>
<circle id="Sensory-ear_2" cx="125.749" cy="178" r="4" fill="#CB08A1"/>
<circle id="Sensory-mouth_2" cx="225.749" cy="201" r="4" fill="#CB08A1"/>
<circle id="Sensory-nose_2" cx="225.749" cy="182" r="4" fill="#CB08A1"/>
<circle id="Sensory-eye_2" cx="225.749" cy="163" r="4" fill="#CB08A1"/>
</g>
<g id="extra-lumbar-points">
<circle id="H-yim" cx="186.749" cy="98" r="4" fill="#34B904"/>
<circle id="H-yin" cx="313.749" cy="97" r="4" fill="#34B904"/>
<path id="I-yin" d="M90.749 108C90.749 110.209 88.9582 112 86.749 112C84.5399 112 82.749 110.209 82.749 108C82.749 105.791 84.5399 104 86.749 104C88.9582 104 90.749 105.791 90.749 108Z" fill="#34B904"/>
<circle id="I-yin_2" cx="405.749" cy="108" r="4" fill="#34B904"/>
</g>
<g id="brain-points">
<ellipse id="Basal-ganglia" cx="248.749" cy="88" rx="4" ry="13" fill="#B4CB08"/>
<circle id="Cerebrum" cx="224.749" cy="95" r="4" fill="#B4CB08"/>
<circle id="Cerebellum" cx="224.749" cy="85" r="4" fill="#B4CB08"/>
<circle id="Cerebrum_2" cx="272.749" cy="96" r="4" fill="#B4CB08"/>
<circle id="Cerebellum_2" cx="272.749" cy="86" r="4" fill="#B4CB08"/>
</g>
</g>
</svg>
